<svg width="24" height="24" viewBox="0 0 24 24" fill="none" xmlns="http://www.w3.org/2000/svg">
<g clip-path="url(#clip0_178_1886)">
<path d="M24 7V8C24 8.552 23.553 9 23 9C22.447 9 22 8.552 22 8V7C22 5.346 20.654 4 19 4H5C3.346 4 2 5.346 2 7V17C2 18.654 3.346 20 5 20H8C8.553 20 9 20.448 9 21C9 21.552 8.553 22 8 22H5C2.243 22 0 19.757 0 17V7C0 4.243 2.243 2 5 2H19C21.757 2 24 4.243 24 7ZM15 9H19C19.553 9 20 8.552 20 8C20 7.448 19.553 7 19 7H15C14.447 7 14 7.448 14 8C14 8.552 14.447 9 15 9ZM23.121 11.879C23.687 12.445 24 13.199 24 14C24 14.801 23.687 15.555 23.121 16.122L16.414 22.829C15.659 23.584 14.654 24.001 13.586 24.001H12C11.447 24.001 11 23.553 11 23.001V21.415C11 20.347 11.416 19.342 12.172 18.587L18.879 11.88C20.049 10.71 21.951 10.71 23.121 11.88V11.879ZM22 14C22 13.733 21.896 13.482 21.707 13.293C21.316 12.902 20.684 12.903 20.293 13.293L13.586 20C13.214 20.373 13 20.888 13 21.414V22H13.586C14.12 22 14.622 21.792 15 21.414L21.707 14.707C21.896 14.518 22 14.267 22 14ZM9 15H6.732C6.376 15 6.044 14.808 5.865 14.5C5.59 14.021 4.979 13.856 4.499 14.135C4.021 14.412 3.857 15.023 4.135 15.501C4.669 16.426 5.665 17 6.733 17H7.001C7.001 17.552 7.448 18 8.001 18C8.554 18 9.001 17.552 9.001 17C10.655 17 12.001 15.654 12.001 14C12.001 12.64 11.027 11.49 9.686 11.267L6.645 10.76C6.272 10.698 6.001 10.378 6.001 10C6.001 9.449 6.449 9 7.001 9H9.269C9.625 9 9.957 9.192 10.136 9.5C10.411 9.978 11.021 10.142 11.502 9.865C11.98 9.588 12.144 8.977 11.866 8.499C11.332 7.574 10.336 6.999 9.268 6.999H9C9 6.447 8.553 5.999 8 5.999C7.447 5.999 7 6.447 7 6.999C5.346 6.999 4 8.345 4 9.999C4 11.359 4.974 12.509 6.315 12.732L9.356 13.239C9.729 13.301 10 13.621 10 13.999C10 14.55 9.552 14.999 9 14.999V15ZM14 12C14 12.552 14.448 13 15 13C15.552 13 16 12.552 16 12C16 11.448 15.552 11 15 11C14.448 11 14 11.448 14 12Z" fill="white"/>
</g>
<defs>
<clipPath id="clip0_178_1886">
<rect width="24" height="24" fill="white"/>
</clipPath>
</defs>
</svg>
