<svg width="24" height="24" viewBox="0 0 24 24" fill="none" xmlns="http://www.w3.org/2000/svg">
<g clip-path="url(#clip0_179_810)">
<path d="M12 20C17.514 20 22 15.514 22 10C22 4.486 17.514 0 12 0C6.486 0 2 4.486 2 10C2 15.514 6.486 20 12 20ZM12 2C16.411 2 20 5.589 20 10C20 14.411 16.411 18 12 18C7.589 18 4 14.411 4 10C4 5.589 7.589 2 12 2ZM24 20.5C24 22.43 22.43 24 20.5 24H3.5C1.57 24 0 22.43 0 20.5C0 19.406 0.522 18.361 1.396 17.703C1.838 17.371 2.465 17.461 2.796 17.9C3.128 18.341 3.04 18.968 2.599 19.3C2.218 19.586 2 20.024 2 20.499C2 21.326 2.673 21.999 3.5 21.999H20.5C21.327 21.999 22 21.326 22 20.499C22 20.023 21.781 19.586 21.4 19.299C20.959 18.966 20.871 18.339 21.204 17.898C21.535 17.459 22.163 17.369 22.604 17.702C23.491 18.372 24 19.391 24 20.5ZM14 12C14 11.621 13.729 11.302 13.356 11.239L10.315 10.733C8.973 10.509 8 9.359 8 8C8 6.346 9.346 5 11 5V4C11 3.447 11.448 3 12 3C12.552 3 13 3.447 13 4V5H13.268C14.335 5 15.331 5.574 15.866 6.499C16.142 6.978 15.979 7.589 15.501 7.865C15.024 8.143 14.412 7.978 14.135 7.501C13.956 7.191 13.624 7 13.268 7H11C10.449 7 10 7.448 10 8C10 8.379 10.271 8.698 10.644 8.761L13.685 9.267C15.027 9.491 16 10.641 16 12C16 13.654 14.654 15 13 15V16C13 16.553 12.552 17 12 17C11.448 17 11 16.553 11 16V15H10.732C9.665 15 8.669 14.426 8.134 13.501C7.858 13.022 8.021 12.411 8.499 12.135C8.975 11.857 9.588 12.022 9.865 12.499C10.044 12.809 10.376 13 10.732 13H13C13.551 13 14 12.552 14 12Z" fill="white"/>
</g>
<defs>
<clipPath id="clip0_179_810">
<rect width="24" height="24" fill="white"/>
</clipPath>
</defs>
</svg>
