<svg width="24" height="24" viewBox="0 0 24 24" fill="none" xmlns="http://www.w3.org/2000/svg">
<g clip-path="url(#clip0_179_814)">
<path d="M23.9999 23.0001C23.9999 23.2653 23.8946 23.5196 23.707 23.7072C23.5195 23.8947 23.2651 24.0001 22.9999 24.0001H0.999903C0.734686 24.0001 0.480332 23.8947 0.292796 23.7072C0.105259 23.5196 -9.74464e-05 23.2653 -9.74464e-05 23.0001C-9.74464e-05 22.7348 0.105259 22.4805 0.292796 22.2929C0.480332 22.1054 0.734686 22.0001 0.999903 22.0001H22.9999C23.2651 22.0001 23.5195 22.1054 23.707 22.2929C23.8946 22.4805 23.9999 22.7348 23.9999 23.0001ZM0.290903 8.55206C0.0754249 8.15238 -0.0244028 7.70056 0.00262298 7.24731C0.0296488 6.79405 0.182458 6.3573 0.443903 5.98606C0.871161 5.35917 1.44335 4.84462 2.1119 4.48606L9.6129 0.582055C10.3502 0.198686 11.1689 -0.00146484 11.9999 -0.00146484C12.8309 -0.00146484 13.6496 0.198686 14.3869 0.582055L21.8869 4.48906C22.5555 4.84762 23.1276 5.36217 23.5549 5.98906C23.8164 6.36029 23.9692 6.79705 23.9962 7.25031C24.0232 7.70356 23.9234 8.15538 23.7079 8.55506C23.4759 8.99389 23.128 9.36066 22.702 9.61544C22.276 9.87023 21.7883 10.0033 21.2919 10.0001H20.9999V18.0001H21.9999C22.2651 18.0001 22.5195 18.1054 22.707 18.2929C22.8946 18.4805 22.9999 18.7348 22.9999 19.0001C22.9999 19.2653 22.8946 19.5196 22.707 19.7072C22.5195 19.8947 22.2651 20.0001 21.9999 20.0001H1.9999C1.73469 20.0001 1.48033 19.8947 1.2928 19.7072C1.10526 19.5196 0.999903 19.2653 0.999903 19.0001C0.999903 18.7348 1.10526 18.4805 1.2928 18.2929C1.48033 18.1054 1.73469 18.0001 1.9999 18.0001H2.9999V10.0001H2.7079C2.21106 10.0032 1.72291 9.86976 1.29669 9.61442C0.870474 9.35908 0.522561 8.9916 0.290903 8.55206ZM4.9999 18.0001H7.9999V10.0001H4.9999V18.0001ZM9.9999 10.0001V18.0001H13.9999V10.0001H9.9999ZM18.9999 10.0001H15.9999V18.0001H18.9999V10.0001ZM2.0629 7.62506C2.12565 7.74074 2.21902 7.83692 2.33278 7.90306C2.44655 7.9692 2.57633 8.00276 2.7079 8.00006H21.2919C21.4235 8.00276 21.5533 7.9692 21.667 7.90306C21.7808 7.83692 21.8742 7.74074 21.9369 7.62506C21.9826 7.54862 22.0047 7.46039 22.0004 7.37143C21.9962 7.28248 21.9657 7.19676 21.9129 7.12506C21.6706 6.76497 21.3451 6.4686 20.9639 6.26106L13.4639 2.35406C13.0119 2.11948 12.5101 1.99703 12.0009 1.99703C11.4917 1.99703 10.9899 2.11948 10.5379 2.35406L3.0379 6.26106C2.65689 6.46926 2.33143 6.76591 2.0889 7.12606C2.03599 7.19746 2.00531 7.28288 2.00068 7.37164C1.99606 7.46039 2.0177 7.54854 2.0629 7.62506Z" fill="white"/>
</g>
<defs>
<clipPath id="clip0_179_814">
<rect width="24" height="24" fill="white"/>
</clipPath>
</defs>
</svg>
