<svg width="34" height="39" viewBox="0 0 34 39" fill="none" xmlns="http://www.w3.org/2000/svg">
<path d="M7 5.25C7 5.25 8.5 3 12 3C15.5 3 17 5.25 17 5.25V21C17 21 15.5 19.875 12 19.875C8.5 19.875 7 21 7 21V5.25ZM17 5.25C17 5.25 18.5 3 22 3C25.5 3 27 5.25 27 5.25V21C27 21 25.5 19.875 22 19.875C18.5 19.875 17 21 17 21V5.25Z" fill="#0091FE"/>
<path d="M2.58918 27.77L3.82918 26.28H4.76918L6.00918 27.77H5.03918L4.29918 26.88L3.55918 27.77H2.58918ZM4.28918 36.1C3.69585 36.1 3.17251 35.9933 2.71918 35.78C2.26585 35.56 1.88585 35.27 1.57918 34.91C1.27251 34.5433 1.04251 34.1333 0.88918 33.68C0.735846 33.2267 0.65918 32.7633 0.65918 32.29C0.65918 31.8167 0.735846 31.3567 0.88918 30.91C1.04251 30.4567 1.27251 30.05 1.57918 29.69C1.88585 29.33 2.26585 29.0433 2.71918 28.83C3.17251 28.61 3.69585 28.5 4.28918 28.5C4.88918 28.5 5.41585 28.61 5.86918 28.83C6.32251 29.0433 6.70251 29.33 7.00918 29.69C7.31585 30.05 7.54585 30.4567 7.69918 30.91C7.85251 31.3567 7.92918 31.8167 7.92918 32.29C7.92918 32.7633 7.85251 33.2267 7.69918 33.68C7.54585 34.1333 7.31585 34.5433 7.00918 34.91C6.70251 35.27 6.32251 35.56 5.86918 35.78C5.41585 35.9933 4.88918 36.1 4.28918 36.1ZM4.28918 35.03C4.82251 35.03 5.26918 34.9 5.62918 34.64C5.98918 34.3733 6.26251 34.0333 6.44918 33.62C6.63585 33.2 6.72918 32.7567 6.72918 32.29C6.72918 31.9433 6.67585 31.61 6.56918 31.29C6.46251 30.9633 6.30585 30.67 6.09918 30.41C5.89918 30.15 5.64585 29.9467 5.33918 29.8C5.03918 29.6467 4.68918 29.57 4.28918 29.57C3.89585 29.57 3.54585 29.6467 3.23918 29.8C2.93918 29.9467 2.68585 30.15 2.47918 30.41C2.27918 30.67 2.12585 30.9633 2.01918 31.29C1.91251 31.61 1.85918 31.9433 1.85918 32.29C1.85918 32.7567 1.95251 33.2 2.13918 33.62C2.32585 34.0333 2.59918 34.3733 2.95918 34.64C3.31918 34.9 3.76251 35.03 4.28918 35.03ZM9.09066 36V30.7H10.2307V31.47H10.2907C10.3373 31.3767 10.4173 31.2633 10.5307 31.13C10.644 30.99 10.8007 30.8667 11.0007 30.76C11.2073 30.6533 11.4673 30.6 11.7807 30.6C12.174 30.6 12.504 30.69 12.7707 30.87C13.0373 31.05 13.2373 31.29 13.3707 31.59C13.5107 31.89 13.5807 32.22 13.5807 32.58V36H12.4407V32.7C12.4407 32.38 12.3507 32.11 12.1707 31.89C11.9973 31.67 11.7373 31.56 11.3907 31.56C11.1173 31.56 10.894 31.63 10.7207 31.77C10.554 31.9033 10.4307 32.08 10.3507 32.3C10.2707 32.5133 10.2307 32.7433 10.2307 32.99V36H9.09066ZM19.5259 36.1C19.1059 36.1 18.7692 36.0233 18.5159 35.87C18.2626 35.7167 18.0792 35.5133 17.9659 35.26C17.8592 35 17.8059 34.72 17.8059 34.42V31.62H16.8759V30.7H17.8059V29.38H18.9459V30.7H20.1859V31.62H18.9459V34.4C18.9459 34.9 19.2226 35.15 19.7759 35.15C19.9159 35.15 20.0459 35.14 20.1659 35.12C20.2859 35.1 20.3459 35.09 20.3459 35.09V36.02C20.3459 36.02 20.2626 36.0333 20.0959 36.06C19.9359 36.0867 19.7459 36.1 19.5259 36.1ZM22.2763 29.97L23.5163 28.26H24.4563L25.6963 29.97H24.7263L23.9863 28.91L23.2463 29.97H22.2763ZM23.6863 30.6C24.0196 30.6 24.2963 30.6533 24.5163 30.76C24.743 30.8667 24.923 30.99 25.0563 31.13C25.1896 31.27 25.2863 31.39 25.3463 31.49H25.4063V30.7H26.5463V36H25.4063V35.21H25.3463C25.2863 35.31 25.1896 35.43 25.0563 35.57C24.923 35.71 24.743 35.8333 24.5163 35.94C24.2963 36.0467 24.0196 36.1 23.6863 36.1C23.2863 36.1 22.9363 36.0233 22.6363 35.87C22.343 35.71 22.0963 35.5 21.8963 35.24C21.6963 34.9733 21.5463 34.6767 21.4463 34.35C21.353 34.0233 21.3063 33.69 21.3063 33.35C21.3063 33.01 21.353 32.6767 21.4463 32.35C21.5463 32.0233 21.6963 31.73 21.8963 31.47C22.0963 31.2033 22.343 30.9933 22.6363 30.84C22.9363 30.68 23.2863 30.6 23.6863 30.6ZM23.9363 31.55C23.6096 31.55 23.3363 31.64 23.1163 31.82C22.8963 31.9933 22.7296 32.2167 22.6163 32.49C22.5096 32.7633 22.4563 33.05 22.4563 33.35C22.4563 33.65 22.5096 33.9367 22.6163 34.21C22.7296 34.4833 22.8963 34.71 23.1163 34.89C23.3363 35.0633 23.6096 35.15 23.9363 35.15C24.263 35.15 24.533 35.0633 24.7463 34.89C24.9663 34.71 25.1296 34.4833 25.2363 34.21C25.3496 33.9367 25.4063 33.65 25.4063 33.35C25.4063 33.05 25.3496 32.7633 25.2363 32.49C25.1296 32.2167 24.9663 31.9933 24.7463 31.82C24.533 31.64 24.263 31.55 23.9363 31.55ZM23.9863 38.34C23.7796 38.34 23.6096 38.27 23.4763 38.13C23.3496 37.99 23.2863 37.8267 23.2863 37.64C23.2863 37.4467 23.3496 37.28 23.4763 37.14C23.6096 37.0067 23.7796 36.94 23.9863 36.94C24.1796 36.94 24.343 37.0067 24.4763 37.14C24.6096 37.28 24.6763 37.4467 24.6763 37.64C24.6763 37.8333 24.6096 37.9967 24.4763 38.13C24.343 38.27 24.1796 38.34 23.9863 38.34ZM28.0286 37.96V30.7H29.1686V31.49H29.2286C29.2952 31.39 29.3919 31.27 29.5186 31.13C29.6519 30.99 29.8286 30.8667 30.0486 30.76C30.2752 30.6533 30.5586 30.6 30.8986 30.6C31.2919 30.6 31.6386 30.68 31.9386 30.84C32.2386 30.9933 32.4852 31.2033 32.6786 31.47C32.8786 31.73 33.0252 32.0233 33.1186 32.35C33.2186 32.6767 33.2686 33.01 33.2686 33.35C33.2686 33.69 33.2186 34.0233 33.1186 34.35C33.0252 34.6767 32.8786 34.9733 32.6786 35.24C32.4852 35.5 32.2386 35.71 31.9386 35.87C31.6386 36.0233 31.2919 36.1 30.8986 36.1C30.5586 36.1 30.2752 36.0467 30.0486 35.94C29.8286 35.8333 29.6519 35.71 29.5186 35.57C29.3919 35.43 29.2952 35.31 29.2286 35.21H29.1686V37.96H28.0286ZM29.1686 33.35C29.1686 33.65 29.2219 33.9367 29.3286 34.21C29.4419 34.4833 29.6052 34.71 29.8186 34.89C30.0386 35.0633 30.3119 35.15 30.6386 35.15C30.9719 35.15 31.2452 35.0633 31.4586 34.89C31.6786 34.71 31.8419 34.4833 31.9486 34.21C32.0619 33.9367 32.1186 33.65 32.1186 33.35C32.1186 33.05 32.0619 32.7633 31.9486 32.49C31.8419 32.2167 31.6786 31.9933 31.4586 31.82C31.2452 31.64 30.9719 31.55 30.6386 31.55C30.3119 31.55 30.0386 31.64 29.8186 31.82C29.6052 31.9933 29.4419 32.2167 29.3286 32.49C29.2219 32.7633 29.1686 33.05 29.1686 33.35Z" fill="#0091FE"/>
</svg>
