<svg width="54" height="39" viewBox="0 0 54 39" fill="none" xmlns="http://www.w3.org/2000/svg">
<path d="M36.7723 16.588C35.4602 15.0769 34.5339 14.3077 34.5339 10.1418C34.5339 6.32692 32.4636 4.96779 30.7596 4.30769C30.5333 4.22019 30.3202 4.01923 30.2513 3.80048C29.9524 2.84327 29.1144 2 28.0006 2C26.8868 2 26.0483 2.84375 25.7525 3.80144C25.6835 4.0226 25.4705 4.22019 25.2441 4.30769C23.5381 4.96875 21.4699 6.32308 21.4699 10.1418C21.4673 14.3077 20.541 15.0769 19.229 16.588C18.6853 17.2139 19.1615 18.1538 20.1124 18.1538H35.894C36.8397 18.1538 37.3128 17.2111 36.7723 16.588ZM31.2706 18.1538V18.9231C31.2706 19.7391 30.9261 20.5218 30.3128 21.0988C29.6996 21.6758 28.8679 22 28.0006 22C27.1334 22 26.3016 21.6758 25.6884 21.0988C25.0752 20.5218 24.7307 19.7391 24.7307 18.9231V18.1538" fill="#0091FE"/>
<path d="M31.2706 18.1538V18.9231C31.2706 19.7391 30.9261 20.5218 30.3128 21.0988C29.6996 21.6758 28.8679 22 28.0006 22C27.1334 22 26.3016 21.6758 25.6884 21.0988C25.0752 20.5218 24.7307 19.7391 24.7307 18.9231V18.1538M36.7723 16.588C35.4602 15.0769 34.5339 14.3077 34.5339 10.1418C34.5339 6.32692 32.4636 4.96779 30.7596 4.30769C30.5333 4.22019 30.3202 4.01923 30.2513 3.80048C29.9524 2.84327 29.1144 2 28.0006 2C26.8868 2 26.0483 2.84375 25.7525 3.80144C25.6835 4.0226 25.4705 4.22019 25.2441 4.30769C23.5381 4.96875 21.4699 6.32308 21.4699 10.1418C21.4673 14.3077 20.541 15.0769 19.229 16.588C18.6853 17.2139 19.1615 18.1538 20.1124 18.1538H35.894C36.8397 18.1538 37.3128 17.2111 36.7723 16.588Z" stroke="#0091FE" stroke-linecap="round" stroke-linejoin="round"/>
<path d="M3.13332 36V29.62H0.83332V28.6H6.59332V29.62H4.29332V36H3.13332ZM7.78441 36V28.4H8.92441V31.47H8.98441C9.03108 31.3767 9.11108 31.2633 9.22441 31.13C9.33775 30.99 9.49441 30.8667 9.69441 30.76C9.90108 30.6533 10.1611 30.6 10.4744 30.6C10.8677 30.6 11.1977 30.69 11.4644 30.87C11.7311 31.05 11.9311 31.29 12.0644 31.59C12.2044 31.89 12.2744 32.22 12.2744 32.58V36H11.1344V32.7C11.1344 32.38 11.0444 32.11 10.8644 31.89C10.6911 31.67 10.4311 31.56 10.0844 31.56C9.81108 31.56 9.58775 31.63 9.41441 31.77C9.24775 31.9033 9.12441 32.08 9.04441 32.3C8.96441 32.5133 8.92441 32.7433 8.92441 32.99V36H7.78441ZM14.4731 29.97L15.7131 28.25H16.6531L17.8931 29.97H16.9231L16.1731 28.91L15.4431 29.97H14.4731ZM16.1831 36.1C15.6098 36.1 15.1231 35.97 14.7231 35.71C14.3298 35.45 14.0298 35.11 13.8231 34.69C13.6164 34.27 13.5131 33.8233 13.5131 33.35C13.5131 32.8767 13.6164 32.43 13.8231 32.01C14.0298 31.59 14.3298 31.25 14.7231 30.99C15.1231 30.73 15.6098 30.6 16.1831 30.6C16.7564 30.6 17.2398 30.73 17.6331 30.99C18.0331 31.25 18.3364 31.59 18.5431 32.01C18.7498 32.43 18.8531 32.8767 18.8531 33.35C18.8531 33.8233 18.7498 34.27 18.5431 34.69C18.3364 35.11 18.0331 35.45 17.6331 35.71C17.2398 35.97 16.7564 36.1 16.1831 36.1ZM16.1831 35.13C16.5098 35.13 16.7831 35.0467 17.0031 34.88C17.2298 34.7133 17.3998 34.4933 17.5131 34.22C17.6331 33.9467 17.6931 33.6567 17.6931 33.35C17.6931 33.0367 17.6331 32.7467 17.5131 32.48C17.3998 32.2067 17.2298 31.9867 17.0031 31.82C16.7831 31.6533 16.5098 31.57 16.1831 31.57C15.8564 31.57 15.5798 31.6533 15.3531 31.82C15.1331 31.9867 14.9631 32.2067 14.8431 32.48C14.7298 32.7467 14.6731 33.0367 14.6731 33.35C14.6731 33.6567 14.7298 33.9467 14.8431 34.22C14.9631 34.4933 15.1331 34.7133 15.3531 34.88C15.5798 35.0467 15.8564 35.13 16.1831 35.13ZM20.0965 36V30.7H21.2365V31.47H21.2965C21.3432 31.3767 21.4232 31.2633 21.5365 31.13C21.6499 30.99 21.8065 30.8667 22.0065 30.76C22.2132 30.6533 22.4732 30.6 22.7865 30.6C23.1799 30.6 23.5099 30.69 23.7765 30.87C24.0432 31.05 24.2432 31.29 24.3765 31.59C24.5165 31.89 24.5865 32.22 24.5865 32.58V36H23.4465V32.7C23.4465 32.38 23.3565 32.11 23.1765 31.89C23.0032 31.67 22.7432 31.56 22.3965 31.56C22.1232 31.56 21.8999 31.63 21.7265 31.77C21.5599 31.9033 21.4365 32.08 21.3565 32.3C21.2765 32.5133 21.2365 32.7433 21.2365 32.99V36H20.0965ZM28.4975 38.11C28.0375 38.11 27.6575 38.05 27.3575 37.93C27.0575 37.81 26.8175 37.66 26.6375 37.48C26.4575 37.3067 26.3242 37.13 26.2375 36.95C26.1509 36.7767 26.0942 36.63 26.0675 36.51C26.0409 36.39 26.0275 36.33 26.0275 36.33H27.1575C27.1575 36.33 27.1709 36.37 27.1975 36.45C27.2242 36.5367 27.2809 36.6333 27.3675 36.74C27.4609 36.8533 27.5975 36.95 27.7775 37.03C27.9575 37.1167 28.1942 37.16 28.4875 37.16C28.8342 37.16 29.1109 37.09 29.3175 36.95C29.5309 36.8167 29.6809 36.6367 29.7675 36.41C29.8609 36.19 29.9075 35.95 29.9075 35.69V35.09H29.8575C29.7842 35.2033 29.6775 35.33 29.5375 35.47C29.4042 35.6033 29.2242 35.72 28.9975 35.82C28.7709 35.92 28.4975 35.97 28.1775 35.97C27.7775 35.97 27.4275 35.8933 27.1275 35.74C26.8342 35.5867 26.5875 35.3833 26.3875 35.13C26.1942 34.87 26.0475 34.58 25.9475 34.26C25.8475 33.94 25.7975 33.6133 25.7975 33.28C25.7975 32.9467 25.8475 32.6233 25.9475 32.31C26.0475 31.99 26.1942 31.7033 26.3875 31.45C26.5875 31.19 26.8342 30.9833 27.1275 30.83C27.4275 30.6767 27.7775 30.6 28.1775 30.6C28.4975 30.6 28.7709 30.65 28.9975 30.75C29.2242 30.8433 29.4075 30.96 29.5475 31.1C29.6875 31.2333 29.7909 31.36 29.8575 31.48H29.9075V30.7H31.0475V35.68C31.0475 36.1533 30.9509 36.5733 30.7575 36.94C30.5642 37.3067 30.2775 37.5933 29.8975 37.8C29.5175 38.0067 29.0509 38.11 28.4975 38.11ZM28.4375 35.03C28.7642 35.03 29.0375 34.9467 29.2575 34.78C29.4775 34.6067 29.6409 34.3867 29.7475 34.12C29.8542 33.8533 29.9075 33.5733 29.9075 33.28C29.9075 32.9867 29.8542 32.7067 29.7475 32.44C29.6409 32.1733 29.4775 31.9567 29.2575 31.79C29.0375 31.6233 28.7642 31.54 28.4375 31.54C28.1042 31.54 27.8275 31.6233 27.6075 31.79C27.3875 31.9567 27.2242 32.1733 27.1175 32.44C27.0109 32.7067 26.9575 32.9867 26.9575 33.28C26.9575 33.5733 27.0109 33.8533 27.1175 34.12C27.2242 34.3867 27.3875 34.6067 27.6075 34.78C27.8275 34.9467 28.1042 35.03 28.4375 35.03ZM37.6466 36.1C37.3066 36.1 37.0233 36.0467 36.7966 35.94C36.5766 35.8333 36.3999 35.71 36.2666 35.57C36.1399 35.43 36.0433 35.31 35.9766 35.21H35.9166V36H34.7766V28.4H35.9166V31.49H35.9766C36.0433 31.39 36.1399 31.27 36.2666 31.13C36.3999 30.99 36.5766 30.8667 36.7966 30.76C37.0233 30.6533 37.3066 30.6 37.6466 30.6C38.0399 30.6 38.3866 30.68 38.6866 30.84C38.9866 30.9933 39.2333 31.2033 39.4266 31.47C39.6266 31.73 39.7733 32.0233 39.8666 32.35C39.9666 32.6767 40.0166 33.01 40.0166 33.35C40.0166 33.69 39.9666 34.0233 39.8666 34.35C39.7733 34.6767 39.6266 34.9733 39.4266 35.24C39.2333 35.5 38.9866 35.71 38.6866 35.87C38.3866 36.0233 38.0399 36.1 37.6466 36.1ZM37.3866 35.15C37.7199 35.15 37.9933 35.0633 38.2066 34.89C38.4266 34.71 38.5899 34.4833 38.6966 34.21C38.8099 33.9367 38.8666 33.65 38.8666 33.35C38.8666 33.05 38.8099 32.7633 38.6966 32.49C38.5899 32.2167 38.4266 31.9933 38.2066 31.82C37.9933 31.64 37.7199 31.55 37.3866 31.55C37.0599 31.55 36.7866 31.64 36.5666 31.82C36.3533 31.9933 36.1899 32.2167 36.0766 32.49C35.9699 32.7633 35.9166 33.05 35.9166 33.35C35.9166 33.65 35.9699 33.9367 36.0766 34.21C36.1899 34.4833 36.3533 34.71 36.5666 34.89C36.7866 35.0633 37.0599 35.15 37.3866 35.15ZM44.28 29.92L43.37 29.91L44.21 28.11H45.33L44.28 29.92ZM43.53 30.6C43.8634 30.6 44.14 30.6533 44.36 30.76C44.5867 30.8667 44.7667 30.99 44.9 31.13C45.0334 31.27 45.13 31.39 45.19 31.49H45.25V30.7H46.39V36H45.25V35.21H45.19C45.13 35.31 45.0334 35.43 44.9 35.57C44.7667 35.71 44.5867 35.8333 44.36 35.94C44.14 36.0467 43.8634 36.1 43.53 36.1C43.13 36.1 42.78 36.0233 42.48 35.87C42.1867 35.71 41.94 35.5 41.74 35.24C41.54 34.9733 41.39 34.6767 41.29 34.35C41.1967 34.0233 41.15 33.69 41.15 33.35C41.15 33.01 41.1967 32.6767 41.29 32.35C41.39 32.0233 41.54 31.73 41.74 31.47C41.94 31.2033 42.1867 30.9933 42.48 30.84C42.78 30.68 43.13 30.6 43.53 30.6ZM43.78 31.55C43.4534 31.55 43.18 31.64 42.96 31.82C42.74 31.9933 42.5734 32.2167 42.46 32.49C42.3534 32.7633 42.3 33.05 42.3 33.35C42.3 33.65 42.3534 33.9367 42.46 34.21C42.5734 34.4833 42.74 34.71 42.96 34.89C43.18 35.0633 43.4534 35.15 43.78 35.15C44.1067 35.15 44.3767 35.0633 44.59 34.89C44.81 34.71 44.9734 34.4833 45.08 34.21C45.1934 33.9367 45.25 33.65 45.25 33.35C45.25 33.05 45.1934 32.7633 45.08 32.49C44.9734 32.2167 44.81 31.9933 44.59 31.82C44.3767 31.64 44.1067 31.55 43.78 31.55ZM50.3621 36.1C49.7821 36.1 49.2921 35.97 48.8921 35.71C48.4987 35.45 48.1987 35.11 47.9921 34.69C47.7921 34.27 47.6921 33.8233 47.6921 33.35C47.6921 32.8767 47.7921 32.43 47.9921 32.01C48.1987 31.59 48.4987 31.25 48.8921 30.99C49.2921 30.73 49.7821 30.6 50.3621 30.6C50.9354 30.6 51.4187 30.73 51.8121 30.99C52.2121 31.25 52.5121 31.59 52.7121 32.01C52.9187 32.43 53.0221 32.8767 53.0221 33.35C53.0221 33.8233 52.9187 34.27 52.7121 34.69C52.5121 35.11 52.2121 35.45 51.8121 35.71C51.4187 35.97 50.9354 36.1 50.3621 36.1ZM50.3621 35.13C50.6887 35.13 50.9621 35.0467 51.1821 34.88C51.4087 34.7133 51.5787 34.4933 51.6921 34.22C51.8121 33.9467 51.8721 33.6567 51.8721 33.35C51.8721 33.0367 51.8121 32.7467 51.6921 32.48C51.5787 32.2067 51.4087 31.9867 51.1821 31.82C50.9621 31.6533 50.6887 31.57 50.3621 31.57C50.0354 31.57 49.7587 31.6533 49.5321 31.82C49.3054 31.9867 49.1354 32.2067 49.0221 32.48C48.9087 32.7467 48.8521 33.0367 48.8521 33.35C48.8521 33.6567 48.9087 33.9467 49.0221 34.22C49.1354 34.4933 49.3054 34.7133 49.5321 34.88C49.7587 35.0467 50.0354 35.13 50.3621 35.13Z" fill="#0091FE"/>
</svg>
