<svg width="34" height="39" viewBox="0 0 34 39" fill="none" xmlns="http://www.w3.org/2000/svg">
<path d="M7 5.25C7 5.25 8.5 3 12 3C15.5 3 17 5.25 17 5.25V21C17 21 15.5 19.875 12 19.875C8.5 19.875 7 21 7 21V5.25ZM17 5.25C17 5.25 18.5 3 22 3C25.5 3 27 5.25 27 5.25V21C27 21 25.5 19.875 22 19.875C18.5 19.875 17 21 17 21V5.25Z" stroke="#7C8289" stroke-width="1.5" stroke-linecap="round" stroke-linejoin="round"/>
<path d="M2.80125 27.74L4.01125 26.27H4.82125L6.03125 27.74H5.17125L4.41125 26.82L3.66125 27.74H2.80125ZM4.41125 36.1C3.82458 36.1 3.30792 35.9933 2.86125 35.78C2.41458 35.56 2.04125 35.27 1.74125 34.91C1.44125 34.5433 1.21458 34.1333 1.06125 33.68C0.907917 33.2267 0.83125 32.7633 0.83125 32.29C0.83125 31.8167 0.907917 31.3567 1.06125 30.91C1.21458 30.4567 1.44125 30.05 1.74125 29.69C2.04125 29.33 2.41458 29.0433 2.86125 28.83C3.30792 28.61 3.82458 28.5 4.41125 28.5C4.99792 28.5 5.51458 28.61 5.96125 28.83C6.40792 29.0433 6.78125 29.33 7.08125 29.69C7.38125 30.05 7.60792 30.4567 7.76125 30.91C7.91458 31.3567 7.99125 31.8167 7.99125 32.29C7.99125 32.7633 7.91458 33.2267 7.76125 33.68C7.60792 34.1333 7.38125 34.5433 7.08125 34.91C6.78125 35.27 6.40792 35.56 5.96125 35.78C5.51458 35.9933 4.99792 36.1 4.41125 36.1ZM4.41125 35.19C4.83125 35.19 5.20125 35.11 5.52125 34.95C5.84125 34.79 6.10792 34.5733 6.32125 34.3C6.54125 34.0267 6.70792 33.7167 6.82125 33.37C6.93458 33.0233 6.99125 32.6633 6.99125 32.29C6.99125 31.9233 6.93458 31.57 6.82125 31.23C6.70792 30.8833 6.54125 30.5733 6.32125 30.3C6.10792 30.0267 5.84125 29.81 5.52125 29.65C5.20125 29.49 4.83125 29.41 4.41125 29.41C3.99125 29.41 3.62125 29.49 3.30125 29.65C2.98125 29.81 2.71125 30.0267 2.49125 30.3C2.27792 30.5733 2.11458 30.8833 2.00125 31.23C1.88792 31.57 1.83125 31.9233 1.83125 32.29C1.83125 32.6633 1.88792 33.0233 2.00125 33.37C2.11458 33.7167 2.27792 34.0267 2.49125 34.3C2.71125 34.5733 2.98125 34.79 3.30125 34.95C3.62125 35.11 3.99125 35.19 4.41125 35.19ZM9.24297 36V30.7H10.193V31.47H10.253C10.2996 31.39 10.3763 31.28 10.483 31.14C10.5963 31 10.7563 30.8767 10.963 30.77C11.1696 30.6567 11.4296 30.6 11.743 30.6C12.1296 30.6 12.4596 30.69 12.733 30.87C13.0063 31.0433 13.213 31.28 13.353 31.58C13.4996 31.88 13.573 32.2167 13.573 32.59V36H12.623V32.65C12.623 32.2967 12.523 32.0033 12.323 31.77C12.1296 31.5367 11.8463 31.42 11.473 31.42C11.173 31.42 10.9296 31.4967 10.743 31.65C10.5563 31.7967 10.4163 31.9933 10.323 32.24C10.2363 32.48 10.193 32.7367 10.193 33.01V36H9.24297ZM19.5301 36.1C18.9834 36.1 18.5701 35.96 18.2901 35.68C18.0167 35.4 17.8801 35.0067 17.8801 34.5V31.48H16.9301V30.7H17.8801V29.37H18.8301V30.7H20.1201V31.48H18.8301V34.5C18.8301 34.7667 18.9034 34.9633 19.0501 35.09C19.1967 35.21 19.4101 35.27 19.6901 35.27C19.8367 35.27 19.9767 35.26 20.1101 35.24C20.2434 35.22 20.3101 35.21 20.3101 35.21V36.02C20.3101 36.02 20.2334 36.0333 20.0801 36.06C19.9267 36.0867 19.7434 36.1 19.5301 36.1ZM22.3221 29.94L23.5321 28.27H24.3421L25.5521 29.94H24.6921L23.9321 28.87L23.1821 29.94H22.3221ZM23.7121 30.6C24.0454 30.6 24.3254 30.6533 24.5521 30.76C24.7788 30.8667 24.9621 30.9933 25.1021 31.14C25.2421 31.28 25.3488 31.4133 25.4221 31.54H25.4821V30.7H26.4321V36H25.4821V35.16H25.4221C25.3488 35.2867 25.2421 35.4233 25.1021 35.57C24.9621 35.7167 24.7788 35.8433 24.5521 35.95C24.3254 36.05 24.0454 36.1 23.7121 36.1C23.3121 36.1 22.9621 36.0233 22.6621 35.87C22.3621 35.71 22.1121 35.5 21.9121 35.24C21.7121 34.9733 21.5621 34.6767 21.4621 34.35C21.3621 34.0233 21.3121 33.69 21.3121 33.35C21.3121 33.01 21.3621 32.6767 21.4621 32.35C21.5621 32.0233 21.7121 31.73 21.9121 31.47C22.1121 31.2033 22.3621 30.9933 22.6621 30.84C22.9621 30.68 23.3121 30.6 23.7121 30.6ZM23.8721 31.41C23.5188 31.41 23.2221 31.5067 22.9821 31.7C22.7421 31.8867 22.5621 32.1267 22.4421 32.42C22.3288 32.7133 22.2721 33.0233 22.2721 33.35C22.2721 33.67 22.3288 33.98 22.4421 34.28C22.5621 34.5733 22.7421 34.8167 22.9821 35.01C23.2221 35.1967 23.5188 35.29 23.8721 35.29C24.2254 35.29 24.5188 35.1967 24.7521 35.01C24.9921 34.8167 25.1688 34.5733 25.2821 34.28C25.4021 33.98 25.4621 33.67 25.4621 33.35C25.4621 33.0233 25.4021 32.7133 25.2821 32.42C25.1688 32.1267 24.9921 31.8867 24.7521 31.7C24.5188 31.5067 24.2254 31.41 23.8721 31.41ZM23.9321 38.27C23.7454 38.27 23.5888 38.2033 23.4621 38.07C23.3421 37.9433 23.2821 37.7933 23.2821 37.62C23.2821 37.44 23.3421 37.2867 23.4621 37.16C23.5888 37.0333 23.7454 36.97 23.9321 36.97C24.1188 36.97 24.2721 37.0333 24.3921 37.16C24.5188 37.2867 24.5821 37.44 24.5821 37.62C24.5821 37.8 24.5188 37.9533 24.3921 38.08C24.2721 38.2067 24.1188 38.27 23.9321 38.27ZM27.9953 37.96V30.7H28.9453V31.54H29.0053C29.0853 31.4133 29.192 31.2767 29.3253 31.13C29.4653 30.9833 29.6486 30.86 29.8753 30.76C30.102 30.6533 30.382 30.6 30.7153 30.6C31.1153 30.6 31.4653 30.68 31.7653 30.84C32.0653 30.9933 32.3153 31.2033 32.5153 31.47C32.7153 31.73 32.8653 32.0233 32.9653 32.35C33.0653 32.6767 33.1153 33.01 33.1153 33.35C33.1153 33.69 33.0653 34.0233 32.9653 34.35C32.8653 34.6767 32.7153 34.9733 32.5153 35.24C32.3153 35.5 32.0653 35.71 31.7653 35.87C31.4653 36.0233 31.1153 36.1 30.7153 36.1C30.382 36.1 30.102 36.0467 29.8753 35.94C29.6486 35.8333 29.4653 35.7067 29.3253 35.56C29.192 35.4133 29.0853 35.28 29.0053 35.16H28.9453V37.96H27.9953ZM28.9653 33.35C28.9653 33.67 29.022 33.98 29.1353 34.28C29.2553 34.5733 29.432 34.8167 29.6653 35.01C29.9053 35.1967 30.202 35.29 30.5553 35.29C30.9153 35.29 31.212 35.1967 31.4453 35.01C31.6853 34.8167 31.862 34.5733 31.9753 34.28C32.0953 33.98 32.1553 33.67 32.1553 33.35C32.1553 33.0233 32.0953 32.7133 31.9753 32.42C31.862 32.1267 31.6853 31.8867 31.4453 31.7C31.212 31.5067 30.9153 31.41 30.5553 31.41C30.202 31.41 29.9053 31.5067 29.6653 31.7C29.432 31.8867 29.2553 32.1267 29.1353 32.42C29.022 32.7133 28.9653 33.0233 28.9653 33.35Z" fill="#7C8289"/>
</svg>
