<svg width="48" height="39" viewBox="0 0 48 39" fill="none" xmlns="http://www.w3.org/2000/svg">
<path d="M24 3.75C24.9946 3.75 25.9484 4.14509 26.6517 4.84835C27.3549 5.55161 27.75 6.50544 27.75 7.5C27.75 8.49456 27.3549 9.44839 26.6517 10.1517C25.9484 10.8549 24.9946 11.25 24 11.25C23.0054 11.25 22.0516 10.8549 21.3483 10.1517C20.6451 9.44839 20.25 8.49456 20.25 7.5C20.25 6.50544 20.6451 5.55161 21.3483 4.84835C22.0516 4.14509 23.0054 3.75 24 3.75ZM30.0293 16.2385C31.5777 17.0127 32.25 17.9438 32.25 18.75V20.25H15.75V18.75C15.75 17.9438 16.4223 17.0127 17.9707 16.2385C19.4745 15.4866 21.6048 15 24 15C26.3952 15 28.5255 15.4866 30.0293 16.2385Z" stroke="#7C8289" stroke-width="1.5"/>
<path d="M3.21508 36V29.46H0.905078V28.6H6.50508V29.46H4.19508V36H3.21508ZM8.97055 29.9L7.94055 28.09H8.92055L9.78055 29.89L8.97055 29.9ZM9.11055 30.6C9.44388 30.6 9.72388 30.6533 9.95055 30.76C10.1772 30.8667 10.3605 30.9933 10.5005 31.14C10.6405 31.28 10.7472 31.4133 10.8205 31.54H10.8805V30.7H11.8305V36H10.8805V35.16H10.8205C10.7472 35.2867 10.6405 35.4233 10.5005 35.57C10.3605 35.7167 10.1772 35.8433 9.95055 35.95C9.72388 36.05 9.44388 36.1 9.11055 36.1C8.71055 36.1 8.36055 36.0233 8.06055 35.87C7.76055 35.71 7.51055 35.5 7.31055 35.24C7.11055 34.9733 6.96055 34.6767 6.86055 34.35C6.76055 34.0233 6.71055 33.69 6.71055 33.35C6.71055 33.01 6.76055 32.6767 6.86055 32.35C6.96055 32.0233 7.11055 31.73 7.31055 31.47C7.51055 31.2033 7.76055 30.9933 8.06055 30.84C8.36055 30.68 8.71055 30.6 9.11055 30.6ZM9.27055 31.41C8.91721 31.41 8.62055 31.5067 8.38055 31.7C8.14055 31.8867 7.96055 32.1267 7.84055 32.42C7.72721 32.7133 7.67055 33.0233 7.67055 33.35C7.67055 33.67 7.72721 33.98 7.84055 34.28C7.96055 34.5733 8.14055 34.8167 8.38055 35.01C8.62055 35.1967 8.91721 35.29 9.27055 35.29C9.62388 35.29 9.91721 35.1967 10.1505 35.01C10.3905 34.8167 10.5672 34.5733 10.6805 34.28C10.8005 33.98 10.8605 33.67 10.8605 33.35C10.8605 33.0233 10.8005 32.7133 10.6805 32.42C10.5672 32.1267 10.3905 31.8867 10.1505 31.7C9.91721 31.5067 9.62388 31.41 9.27055 31.41ZM13.9137 29.69C13.7338 29.69 13.5838 29.63 13.4638 29.51C13.3504 29.39 13.2938 29.2467 13.2938 29.08C13.2938 28.9067 13.3504 28.76 13.4638 28.64C13.5838 28.52 13.7338 28.46 13.9137 28.46C14.0871 28.46 14.2338 28.52 14.3538 28.64C14.4738 28.76 14.5338 28.9067 14.5338 29.08C14.5338 29.2467 14.4738 29.39 14.3538 29.51C14.2338 29.63 14.0871 29.69 13.9137 29.69ZM13.4438 36V30.7H14.3938V36H13.4438ZM18.3352 36V28.4H19.2852V32.82L21.3952 30.7H22.6352L20.1952 33.11L22.6852 36H21.4752L19.2852 33.45V36H18.3352ZM23.882 36V28.4H24.832V31.47H24.892C24.9387 31.39 25.0154 31.28 25.122 31.14C25.2354 31 25.3954 30.8767 25.602 30.77C25.8087 30.6567 26.0687 30.6 26.382 30.6C26.7687 30.6 27.0987 30.69 27.372 30.87C27.6454 31.0433 27.852 31.28 27.992 31.58C28.1387 31.88 28.212 32.2167 28.212 32.59V36H27.262V32.65C27.262 32.2967 27.162 32.0033 26.962 31.77C26.7687 31.5367 26.4854 31.42 26.112 31.42C25.812 31.42 25.5687 31.4967 25.382 31.65C25.1954 31.7967 25.0554 31.9933 24.962 32.24C24.8754 32.48 24.832 32.7367 24.832 33.01V36H23.882ZM32.1221 36.1C31.5554 36.1 31.0788 35.97 30.6921 35.71C30.3054 35.4433 30.0121 35.1 29.8121 34.68C29.6121 34.26 29.5121 33.8167 29.5121 33.35C29.5121 32.8767 29.6121 32.4333 29.8121 32.02C30.0121 31.6 30.3054 31.26 30.6921 31C31.0788 30.7333 31.5554 30.6 32.1221 30.6C32.6888 30.6 33.1654 30.7333 33.5521 31C33.9388 31.26 34.2321 31.6 34.4321 32.02C34.6321 32.4333 34.7321 32.8767 34.7321 33.35C34.7321 33.8167 34.6321 34.26 34.4321 34.68C34.2321 35.1 33.9388 35.4433 33.5521 35.71C33.1654 35.97 32.6888 36.1 32.1221 36.1ZM32.1221 35.27C32.4821 35.27 32.7821 35.18 33.0221 35C33.2688 34.8133 33.4521 34.5733 33.5721 34.28C33.6988 33.9867 33.7621 33.6767 33.7621 33.35C33.7621 33.0167 33.6988 32.7067 33.5721 32.42C33.4521 32.1267 33.2688 31.89 33.0221 31.71C32.7821 31.5233 32.4821 31.43 32.1221 31.43C31.7688 31.43 31.4688 31.5233 31.2221 31.71C30.9754 31.89 30.7888 32.1267 30.6621 32.42C30.5421 32.7067 30.4821 33.0167 30.4821 33.35C30.4821 33.6767 30.5421 33.9867 30.6621 34.28C30.7888 34.5733 30.9754 34.8133 31.2221 35C31.4688 35.18 31.7688 35.27 32.1221 35.27ZM38.2293 29.97V29.65C38.2293 29.5833 38.2426 29.5167 38.2693 29.45C38.296 29.3833 38.3493 29.33 38.4293 29.29L38.5693 29.22C38.876 29.0667 39.0293 28.8967 39.0293 28.71C39.0293 28.6167 38.9926 28.5333 38.9193 28.46C38.8526 28.38 38.7426 28.34 38.5893 28.34C38.456 28.34 38.356 28.37 38.2893 28.43C38.2293 28.4833 38.1893 28.5433 38.1693 28.61C38.1493 28.6767 38.1393 28.73 38.1393 28.77H37.4793C37.4793 28.6033 37.516 28.4433 37.5893 28.29C37.6693 28.1367 37.7893 28.01 37.9493 27.91C38.116 27.81 38.326 27.76 38.5793 27.76C38.9326 27.76 39.2093 27.8533 39.4093 28.04C39.616 28.22 39.7193 28.4367 39.7193 28.69C39.7193 28.8767 39.656 29.0533 39.5293 29.22C39.4026 29.38 39.1993 29.5267 38.9193 29.66L38.8793 29.68V29.97H38.2293ZM38.3293 30.6C38.6626 30.6 38.9426 30.6533 39.1693 30.76C39.396 30.8667 39.5793 30.9933 39.7193 31.14C39.8593 31.28 39.966 31.4133 40.0393 31.54H40.0993V30.7H41.0493V36H40.0993V35.16H40.0393C39.966 35.2867 39.8593 35.4233 39.7193 35.57C39.5793 35.7167 39.396 35.8433 39.1693 35.95C38.9426 36.05 38.6626 36.1 38.3293 36.1C37.9293 36.1 37.5793 36.0233 37.2793 35.87C36.9793 35.71 36.7293 35.5 36.5293 35.24C36.3293 34.9733 36.1793 34.6767 36.0793 34.35C35.9793 34.0233 35.9293 33.69 35.9293 33.35C35.9293 33.01 35.9793 32.6767 36.0793 32.35C36.1793 32.0233 36.3293 31.73 36.5293 31.47C36.7293 31.2033 36.9793 30.9933 37.2793 30.84C37.5793 30.68 37.9293 30.6 38.3293 30.6ZM38.4893 31.41C38.136 31.41 37.8393 31.5067 37.5993 31.7C37.3593 31.8867 37.1793 32.1267 37.0593 32.42C36.946 32.7133 36.8893 33.0233 36.8893 33.35C36.8893 33.67 36.946 33.98 37.0593 34.28C37.1793 34.5733 37.3593 34.8167 37.5993 35.01C37.8393 35.1967 38.136 35.29 38.4893 35.29C38.8426 35.29 39.136 35.1967 39.3693 35.01C39.6093 34.8167 39.786 34.5733 39.8993 34.28C40.0193 33.98 40.0793 33.67 40.0793 33.35C40.0793 33.0233 40.0193 32.7133 39.8993 32.42C39.786 32.1267 39.6093 31.8867 39.3693 31.7C39.136 31.5067 38.8426 31.41 38.4893 31.41ZM42.5125 36V30.7H43.4625V31.47H43.5225C43.5692 31.39 43.6458 31.28 43.7525 31.14C43.8658 31 44.0258 30.8767 44.2325 30.77C44.4392 30.6567 44.6992 30.6 45.0125 30.6C45.3992 30.6 45.7292 30.69 46.0025 30.87C46.2758 31.0433 46.4825 31.28 46.6225 31.58C46.7692 31.88 46.8425 32.2167 46.8425 32.59V36H45.8925V32.65C45.8925 32.2967 45.7925 32.0033 45.5925 31.77C45.3992 31.5367 45.1158 31.42 44.7425 31.42C44.4425 31.42 44.1992 31.4967 44.0125 31.65C43.8258 31.7967 43.6858 31.9933 43.5925 32.24C43.5058 32.48 43.4625 32.7367 43.4625 33.01V36H42.5125Z" fill="#7C8289"/>
</svg>
