<svg width="35" height="39" viewBox="0 0 35 39" fill="none" xmlns="http://www.w3.org/2000/svg">
<path fill-rule="evenodd" clip-rule="evenodd" d="M25.5 6.5C25.1022 6.5 24.7206 6.65804 24.4393 6.93934C24.158 7.22064 24 7.60218 24 8V9H27V8C27 7.60218 26.842 7.22064 26.5607 6.93934C26.2794 6.65804 25.8978 6.5 25.5 6.5ZM27 10H24V18.25L25.5 20.5L27 18.25V10ZM9 4.5V19.5C9 19.8978 9.15804 20.2794 9.43934 20.5607C9.72064 20.842 10.1022 21 10.5 21H21.5C21.8978 21 22.2794 20.842 22.5607 20.5607C22.842 20.2794 23 19.8978 23 19.5V4.5C23 4.10218 22.842 3.72064 22.5607 3.43934C22.2794 3.15804 21.8978 3 21.5 3H10.5C10.1022 3 9.72064 3.15804 9.43934 3.43934C9.15804 3.72064 9 4.10218 9 4.5ZM16 7.5C16 7.36739 16.0527 7.24021 16.1464 7.14645C16.2402 7.05268 16.3674 7 16.5 7H20.5C20.6326 7 20.7598 7.05268 20.8536 7.14645C20.9473 7.24021 21 7.36739 21 7.5C21 7.63261 20.9473 7.75979 20.8536 7.85355C20.7598 7.94732 20.6326 8 20.5 8H16.5C16.3674 8 16.2402 7.94732 16.1464 7.85355C16.0527 7.75979 16 7.63261 16 7.5ZM16.5 9C16.3674 9 16.2402 9.05268 16.1464 9.14645C16.0527 9.24021 16 9.36739 16 9.5C16 9.63261 16.0527 9.75979 16.1464 9.85355C16.2402 9.94732 16.3674 10 16.5 10H20.5C20.6326 10 20.7598 9.94732 20.8536 9.85355C20.9473 9.75979 21 9.63261 21 9.5C21 9.36739 20.9473 9.24021 20.8536 9.14645C20.7598 9.05268 20.6326 9 20.5 9H16.5ZM16 14C16 13.8674 16.0527 13.7402 16.1464 13.6464C16.2402 13.5527 16.3674 13.5 16.5 13.5H20.5C20.6326 13.5 20.7598 13.5527 20.8536 13.6464C20.9473 13.7402 21 13.8674 21 14C21 14.1326 20.9473 14.2598 20.8536 14.3536C20.7598 14.4473 20.6326 14.5 20.5 14.5H16.5C16.3674 14.5 16.2402 14.4473 16.1464 14.3536C16.0527 14.2598 16 14.1326 16 14ZM16.5 15.5C16.3674 15.5 16.2402 15.5527 16.1464 15.6464C16.0527 15.7402 16 15.8674 16 16C16 16.1326 16.0527 16.2598 16.1464 16.3536C16.2402 16.4473 16.3674 16.5 16.5 16.5H20.5C20.6326 16.5 20.7598 16.4473 20.8536 16.3536C20.9473 16.2598 21 16.1326 21 16C21 15.8674 20.9473 15.7402 20.8536 15.6464C20.7598 15.5527 20.6326 15.5 20.5 15.5H16.5ZM12 14V15.5H13.5V14H12ZM11.5 13H14C14.1326 13 14.2598 13.0527 14.3536 13.1464C14.4473 13.2402 14.5 13.3674 14.5 13.5V16C14.5 16.1326 14.4473 16.2598 14.3536 16.3536C14.2598 16.4473 14.1326 16.5 14 16.5H11.5C11.3674 16.5 11.2402 16.4473 11.1464 16.3536C11.0527 16.2598 11 16.1326 11 16V13.5C11 13.3674 11.0527 13.2402 11.1464 13.1464C11.2402 13.0527 11.3674 13 11.5 13V13ZM14.8535 7.8535C14.9446 7.7592 14.995 7.6329 14.9938 7.5018C14.9927 7.3707 14.9401 7.24529 14.8474 7.15259C14.7547 7.05989 14.6293 7.0073 14.4982 7.00616C14.3671 7.00502 14.2408 7.05542 14.1465 7.1465L12.5 8.793L11.8535 8.1465C11.7592 8.05542 11.6329 8.00502 11.5018 8.00616C11.3707 8.0073 11.2453 8.05989 11.1526 8.15259C11.0599 8.24529 11.0073 8.3707 11.0062 8.5018C11.005 8.6329 11.0554 8.7592 11.1465 8.8535L12.5 10.207L14.8535 7.8535Z" fill="#0091FE"/>
<path d="M2.85988 36V29.62H0.559883V28.6H6.31988V29.62H4.01988V36H2.85988ZM7.51098 36V28.4H8.65098V31.47H8.71098C8.75764 31.3767 8.83764 31.2633 8.95098 31.13C9.06431 30.99 9.22098 30.8667 9.42098 30.76C9.62764 30.6533 9.88764 30.6 10.201 30.6C10.5943 30.6 10.9243 30.69 11.191 30.87C11.4576 31.05 11.6576 31.29 11.791 31.59C11.931 31.89 12.001 32.22 12.001 32.58V36H10.861V32.7C10.861 32.38 10.771 32.11 10.591 31.89C10.4176 31.67 10.1576 31.56 9.81098 31.56C9.53764 31.56 9.31431 31.63 9.14098 31.77C8.97431 31.9033 8.85098 32.08 8.77098 32.3C8.69098 32.5133 8.65098 32.7433 8.65098 32.99V36H7.51098ZM14.0292 29.79C13.8225 29.79 13.6525 29.72 13.5192 29.58C13.3858 29.44 13.3192 29.2767 13.3192 29.09C13.3192 28.8967 13.3858 28.7333 13.5192 28.6C13.6525 28.46 13.8225 28.39 14.0292 28.39C14.2358 28.39 14.4058 28.46 14.5392 28.6C14.6792 28.7333 14.7492 28.8967 14.7492 29.09C14.7492 29.2833 14.6792 29.45 14.5392 29.59C14.4058 29.7233 14.2358 29.79 14.0292 29.79ZM13.4692 36V30.7H14.6092V36H13.4692ZM20.6978 36.1C20.2778 36.1 19.9411 36.0233 19.6878 35.87C19.4344 35.7167 19.2511 35.5133 19.1378 35.26C19.0311 35 18.9778 34.72 18.9778 34.42V31.62H18.0478V30.7H18.9778V29.38H20.1178V30.7H21.3578V31.62H20.1178V34.4C20.1178 34.9 20.3944 35.15 20.9478 35.15C21.0878 35.15 21.2178 35.14 21.3378 35.12C21.4578 35.1 21.5178 35.09 21.5178 35.09V36.02C21.5178 36.02 21.4344 36.0333 21.2678 36.06C21.1078 36.0867 20.9178 36.1 20.6978 36.1ZM22.7844 36V28.4H23.9244V31.47H23.9844C24.0311 31.3767 24.1111 31.2633 24.2244 31.13C24.3377 30.99 24.4944 30.8667 24.6944 30.76C24.9011 30.6533 25.1611 30.6 25.4744 30.6C25.8677 30.6 26.1977 30.69 26.4644 30.87C26.7311 31.05 26.9311 31.29 27.0644 31.59C27.2044 31.89 27.2744 32.22 27.2744 32.58V36H26.1344V32.7C26.1344 32.38 26.0444 32.11 25.8644 31.89C25.6911 31.67 25.4311 31.56 25.0844 31.56C24.8111 31.56 24.5877 31.63 24.4144 31.77C24.2477 31.9033 24.1244 32.08 24.0444 32.3C23.9644 32.5133 23.9244 32.7433 23.9244 32.99V36H22.7844ZM30.4826 30.01V29.68C30.4826 29.6133 30.496 29.5433 30.5226 29.47C30.556 29.3967 30.616 29.34 30.7026 29.3L30.8426 29.23C31.1426 29.0767 31.2926 28.91 31.2926 28.73C31.2926 28.6433 31.2593 28.5633 31.1926 28.49C31.126 28.4167 31.0226 28.38 30.8826 28.38C30.7493 28.38 30.6526 28.41 30.5926 28.47C30.5326 28.5233 30.4926 28.5833 30.4726 28.65C30.4593 28.7167 30.4526 28.7667 30.4526 28.8H29.7226C29.716 28.6267 29.7526 28.46 29.8326 28.3C29.9126 28.14 30.036 28.0067 30.2026 27.9C30.376 27.7933 30.5993 27.74 30.8726 27.74C31.2393 27.74 31.5293 27.8367 31.7426 28.03C31.956 28.2167 32.0626 28.4433 32.0626 28.71C32.0626 29.1033 31.7926 29.4333 31.2526 29.7L31.2126 29.72V30.01H30.4826ZM30.4226 36.1C29.8893 36.1 29.4726 35.9333 29.1726 35.6C28.8726 35.2667 28.7226 34.8233 28.7226 34.27V30.7H29.8626V34.13C29.8626 34.45 29.946 34.7 30.1126 34.88C30.286 35.0533 30.5193 35.14 30.8126 35.14C31.0993 35.14 31.3293 35.0667 31.5026 34.92C31.676 34.7733 31.7993 34.5867 31.8726 34.36C31.9526 34.1267 31.9926 33.8867 31.9926 33.64V30.7H32.8826C33.1493 30.7 33.2826 30.5633 33.2826 30.29V29.66H34.2426V30.31C34.2426 30.6367 34.156 30.8933 33.9826 31.08C33.816 31.2667 33.566 31.36 33.2326 31.36H33.1326V36H31.9926V35.24H31.9326C31.8793 35.34 31.7926 35.46 31.6726 35.6C31.5593 35.7333 31.3993 35.85 31.1926 35.95C30.9926 36.05 30.736 36.1 30.4226 36.1Z" fill="#0091FE"/>
</svg>
