<svg width="48" height="39" viewBox="0 0 48 39" fill="none" xmlns="http://www.w3.org/2000/svg">
<path d="M24 3C25.1935 3 26.3381 3.47411 27.182 4.31802C28.0259 5.16193 28.5 6.30653 28.5 7.5C28.5 8.69347 28.0259 9.83807 27.182 10.682C26.3381 11.5259 25.1935 12 24 12C22.8065 12 21.6619 11.5259 20.818 10.682C19.9741 9.83807 19.5 8.69347 19.5 7.5C19.5 6.30653 19.9741 5.16193 20.818 4.31802C21.6619 3.47411 22.8065 3 24 3V3ZM24 14.25C28.9725 14.25 33 16.2637 33 18.75V21H15V18.75C15 16.2637 19.0275 14.25 24 14.25Z" fill="#0091FE"/>
<path d="M2.87258 36V29.62H0.572578V28.6H6.33258V29.62H4.03258V36H2.87258ZM8.69617 29.92L7.64617 28.11H8.76617L9.60617 29.91L8.69617 29.92ZM8.81617 30.6C9.14951 30.6 9.42617 30.6533 9.64617 30.76C9.87284 30.8667 10.0528 30.99 10.1862 31.13C10.3195 31.27 10.4162 31.39 10.4762 31.49H10.5362V30.7H11.6762V36H10.5362V35.21H10.4762C10.4162 35.31 10.3195 35.43 10.1862 35.57C10.0528 35.71 9.87284 35.8333 9.64617 35.94C9.42617 36.0467 9.14951 36.1 8.81617 36.1C8.41617 36.1 8.06617 36.0233 7.76617 35.87C7.47284 35.71 7.22617 35.5 7.02617 35.24C6.82617 34.9733 6.67617 34.6767 6.57617 34.35C6.48284 34.0233 6.43617 33.69 6.43617 33.35C6.43617 33.01 6.48284 32.6767 6.57617 32.35C6.67617 32.0233 6.82617 31.73 7.02617 31.47C7.22617 31.2033 7.47284 30.9933 7.76617 30.84C8.06617 30.68 8.41617 30.6 8.81617 30.6ZM9.06617 31.55C8.73951 31.55 8.46617 31.64 8.24617 31.82C8.02617 31.9933 7.85951 32.2167 7.74617 32.49C7.63951 32.7633 7.58617 33.05 7.58617 33.35C7.58617 33.65 7.63951 33.9367 7.74617 34.21C7.85951 34.4833 8.02617 34.71 8.24617 34.89C8.46617 35.0633 8.73951 35.15 9.06617 35.15C9.39284 35.15 9.66284 35.0633 9.87617 34.89C10.0962 34.71 10.2595 34.4833 10.3662 34.21C10.4795 33.9367 10.5362 33.65 10.5362 33.35C10.5362 33.05 10.4795 32.7633 10.3662 32.49C10.2595 32.2167 10.0962 31.9933 9.87617 31.82C9.66284 31.64 9.39284 31.55 9.06617 31.55ZM13.7684 29.79C13.5618 29.79 13.3918 29.72 13.2584 29.58C13.1251 29.44 13.0584 29.2767 13.0584 29.09C13.0584 28.8967 13.1251 28.7333 13.2584 28.6C13.3918 28.46 13.5618 28.39 13.7684 28.39C13.9751 28.39 14.1451 28.46 14.2784 28.6C14.4184 28.7333 14.4884 28.8967 14.4884 29.09C14.4884 29.2833 14.4184 29.45 14.2784 29.59C14.1451 29.7233 13.9751 29.79 13.7684 29.79ZM13.2084 36V30.7H14.3484V36H13.2084ZM18.217 36V28.4H19.357V32.81L21.347 30.7H22.747L20.437 33.12L22.817 36H21.407L19.357 33.5V36H18.217ZM23.9202 36V28.4H25.0602V31.47H25.1202C25.1668 31.3767 25.2468 31.2633 25.3602 31.13C25.4735 30.99 25.6302 30.8667 25.8302 30.76C26.0368 30.6533 26.2968 30.6 26.6102 30.6C27.0035 30.6 27.3335 30.69 27.6002 30.87C27.8668 31.05 28.0668 31.29 28.2002 31.59C28.3402 31.89 28.4102 32.22 28.4102 32.58V36H27.2702V32.7C27.2702 32.38 27.1802 32.11 27.0002 31.89C26.8268 31.67 26.5668 31.56 26.2202 31.56C25.9468 31.56 25.7235 31.63 25.5502 31.77C25.3835 31.9033 25.2602 32.08 25.1802 32.3C25.1002 32.5133 25.0602 32.7433 25.0602 32.99V36H23.9202ZM32.2888 36.1C31.7088 36.1 31.2188 35.97 30.8188 35.71C30.4255 35.45 30.1255 35.11 29.9188 34.69C29.7188 34.27 29.6188 33.8233 29.6188 33.35C29.6188 32.8767 29.7188 32.43 29.9188 32.01C30.1255 31.59 30.4255 31.25 30.8188 30.99C31.2188 30.73 31.7088 30.6 32.2888 30.6C32.8622 30.6 33.3455 30.73 33.7388 30.99C34.1388 31.25 34.4388 31.59 34.6388 32.01C34.8455 32.43 34.9488 32.8767 34.9488 33.35C34.9488 33.8233 34.8455 34.27 34.6388 34.69C34.4388 35.11 34.1388 35.45 33.7388 35.71C33.3455 35.97 32.8622 36.1 32.2888 36.1ZM32.2888 35.13C32.6155 35.13 32.8888 35.0467 33.1088 34.88C33.3355 34.7133 33.5055 34.4933 33.6188 34.22C33.7388 33.9467 33.7988 33.6567 33.7988 33.35C33.7988 33.0367 33.7388 32.7467 33.6188 32.48C33.5055 32.2067 33.3355 31.9867 33.1088 31.82C32.8888 31.6533 32.6155 31.57 32.2888 31.57C31.9622 31.57 31.6855 31.6533 31.4588 31.82C31.2322 31.9867 31.0622 32.2067 30.9488 32.48C30.8355 32.7467 30.7788 33.0367 30.7788 33.35C30.7788 33.6567 30.8355 33.9467 30.9488 34.22C31.0622 34.4933 31.2322 34.7133 31.4588 34.88C31.6855 35.0467 31.9622 35.13 32.2888 35.13ZM38.4046 30.01V29.68C38.4046 29.6133 38.4179 29.5433 38.4446 29.47C38.4779 29.3967 38.5379 29.34 38.6246 29.3L38.7646 29.23C39.0646 29.0767 39.2146 28.91 39.2146 28.73C39.2146 28.6433 39.1779 28.5633 39.1046 28.49C39.0379 28.4167 38.9346 28.38 38.7946 28.38C38.6679 28.38 38.5746 28.41 38.5146 28.47C38.4546 28.5233 38.4146 28.5833 38.3946 28.65C38.3746 28.7167 38.3646 28.7667 38.3646 28.8H37.6346C37.6346 28.6267 37.6713 28.46 37.7446 28.3C37.8246 28.14 37.9513 28.0067 38.1246 27.9C38.2979 27.7933 38.5179 27.74 38.7846 27.74C39.1513 27.74 39.4413 27.8367 39.6546 28.03C39.8746 28.2167 39.9846 28.4433 39.9846 28.71C39.9846 29.1033 39.7146 29.4333 39.1746 29.7L39.1246 29.72V30.01H38.4046ZM38.4646 30.6C38.7979 30.6 39.0746 30.6533 39.2946 30.76C39.5213 30.8667 39.7013 30.99 39.8346 31.13C39.9679 31.27 40.0646 31.39 40.1246 31.49H40.1846V30.7H41.3246V36H40.1846V35.21H40.1246C40.0646 35.31 39.9679 35.43 39.8346 35.57C39.7013 35.71 39.5213 35.8333 39.2946 35.94C39.0746 36.0467 38.7979 36.1 38.4646 36.1C38.0646 36.1 37.7146 36.0233 37.4146 35.87C37.1213 35.71 36.8746 35.5 36.6746 35.24C36.4746 34.9733 36.3246 34.6767 36.2246 34.35C36.1313 34.0233 36.0846 33.69 36.0846 33.35C36.0846 33.01 36.1313 32.6767 36.2246 32.35C36.3246 32.0233 36.4746 31.73 36.6746 31.47C36.8746 31.2033 37.1213 30.9933 37.4146 30.84C37.7146 30.68 38.0646 30.6 38.4646 30.6ZM38.7146 31.55C38.3879 31.55 38.1146 31.64 37.8946 31.82C37.6746 31.9933 37.5079 32.2167 37.3946 32.49C37.2879 32.7633 37.2346 33.05 37.2346 33.35C37.2346 33.65 37.2879 33.9367 37.3946 34.21C37.5079 34.4833 37.6746 34.71 37.8946 34.89C38.1146 35.0633 38.3879 35.15 38.7146 35.15C39.0413 35.15 39.3113 35.0633 39.5246 34.89C39.7446 34.71 39.9079 34.4833 40.0146 34.21C40.1279 33.9367 40.1846 33.65 40.1846 33.35C40.1846 33.05 40.1279 32.7633 40.0146 32.49C39.9079 32.2167 39.7446 31.9933 39.5246 31.82C39.3113 31.64 39.0413 31.55 38.7146 31.55ZM42.7069 36V30.7H43.8469V31.47H43.9069C43.9535 31.3767 44.0335 31.2633 44.1469 31.13C44.2602 30.99 44.4169 30.8667 44.6169 30.76C44.8235 30.6533 45.0835 30.6 45.3969 30.6C45.7902 30.6 46.1202 30.69 46.3869 30.87C46.6535 31.05 46.8535 31.29 46.9869 31.59C47.1269 31.89 47.1969 32.22 47.1969 32.58V36H46.0569V32.7C46.0569 32.38 45.9669 32.11 45.7869 31.89C45.6135 31.67 45.3535 31.56 45.0069 31.56C44.7335 31.56 44.5102 31.63 44.3369 31.77C44.1702 31.9033 44.0469 32.08 43.9669 32.3C43.8869 32.5133 43.8469 32.7433 43.8469 32.99V36H42.7069Z" fill="#0091FE"/>
</svg>
