<svg width="53" height="39" viewBox="0 0 53 39" fill="none" xmlns="http://www.w3.org/2000/svg">
<path d="M30.2706 18.1538V18.9231C30.2706 19.7391 29.9261 20.5218 29.3128 21.0988C28.6996 21.6758 27.8679 22 27.0006 22C26.1334 22 25.3016 21.6758 24.6884 21.0988C24.0752 20.5218 23.7307 19.7391 23.7307 18.9231V18.1538M35.7723 16.588C34.4602 15.0769 33.5339 14.3077 33.5339 10.1418C33.5339 6.32692 31.4636 4.96779 29.7596 4.30769C29.5333 4.22019 29.3202 4.01923 29.2513 3.80048C28.9524 2.84327 28.1144 2 27.0006 2C25.8868 2 25.0483 2.84375 24.7525 3.80144C24.6835 4.0226 24.4705 4.22019 24.2441 4.30769C22.5381 4.96875 20.4699 6.32308 20.4699 10.1418C20.4673 14.3077 19.541 15.0769 18.229 16.588C17.6853 17.2139 18.1615 18.1538 19.1124 18.1538H34.894C35.8397 18.1538 36.3128 17.2111 35.7723 16.588Z" stroke="#7C8289" stroke-width="1.5" stroke-linecap="round" stroke-linejoin="round"/>
<path d="M2.88793 36V29.46H0.57793V28.6H6.17793V29.46H3.86793V36H2.88793ZM7.43184 36V28.4H8.38184V31.47H8.44184C8.4885 31.39 8.56517 31.28 8.67184 31.14C8.78517 31 8.94517 30.8767 9.15184 30.77C9.3585 30.6567 9.6185 30.6 9.93184 30.6C10.3185 30.6 10.6485 30.69 10.9218 30.87C11.1952 31.0433 11.4018 31.28 11.5418 31.58C11.6885 31.88 11.7618 32.2167 11.7618 32.59V36H10.8118V32.65C10.8118 32.2967 10.7118 32.0033 10.5118 31.77C10.3185 31.5367 10.0352 31.42 9.66184 31.42C9.36184 31.42 9.1185 31.4967 8.93184 31.65C8.74517 31.7967 8.60517 31.9933 8.51184 32.24C8.42517 32.48 8.38184 32.7367 8.38184 33.01V36H7.43184ZM14.1019 29.93L15.3119 28.26H16.1219L17.3319 29.93H16.4719L15.7119 28.86L14.9619 29.93H14.1019ZM15.7219 36.1C15.1552 36.1 14.6786 35.97 14.2919 35.71C13.9052 35.4433 13.6119 35.1 13.4119 34.68C13.2119 34.26 13.1119 33.8167 13.1119 33.35C13.1119 32.8767 13.2119 32.4333 13.4119 32.02C13.6119 31.6 13.9052 31.26 14.2919 31C14.6786 30.7333 15.1552 30.6 15.7219 30.6C16.2886 30.6 16.7652 30.7333 17.1519 31C17.5386 31.26 17.8319 31.6 18.0319 32.02C18.2319 32.4333 18.3319 32.8767 18.3319 33.35C18.3319 33.8167 18.2319 34.26 18.0319 34.68C17.8319 35.1 17.5386 35.4433 17.1519 35.71C16.7652 35.97 16.2886 36.1 15.7219 36.1ZM15.7219 35.27C16.0819 35.27 16.3819 35.18 16.6219 35C16.8686 34.8133 17.0519 34.5733 17.1719 34.28C17.2986 33.9867 17.3619 33.6767 17.3619 33.35C17.3619 33.0167 17.2986 32.7067 17.1719 32.42C17.0519 32.1267 16.8686 31.89 16.6219 31.71C16.3819 31.5233 16.0819 31.43 15.7219 31.43C15.3686 31.43 15.0686 31.5233 14.8219 31.71C14.5752 31.89 14.3886 32.1267 14.2619 32.42C14.1419 32.7067 14.0819 33.0167 14.0819 33.35C14.0819 33.6767 14.1419 33.9867 14.2619 34.28C14.3886 34.5733 14.5752 34.8133 14.8219 35C15.0686 35.18 15.3686 35.27 15.7219 35.27ZM19.6854 36V30.7H20.6354V31.47H20.6954C20.742 31.39 20.8187 31.28 20.9254 31.14C21.0387 31 21.1987 30.8767 21.4054 30.77C21.612 30.6567 21.872 30.6 22.1854 30.6C22.572 30.6 22.902 30.69 23.1754 30.87C23.4487 31.0433 23.6554 31.28 23.7954 31.58C23.942 31.88 24.0154 32.2167 24.0154 32.59V36H23.0654V32.65C23.0654 32.2967 22.9654 32.0033 22.7654 31.77C22.572 31.5367 22.2887 31.42 21.9154 31.42C21.6154 31.42 21.372 31.4967 21.1854 31.65C20.9987 31.7967 20.8587 31.9933 20.7654 32.24C20.6787 32.48 20.6354 32.7367 20.6354 33.01V36H19.6854ZM27.9678 38.1C27.5278 38.1 27.1611 38.04 26.8678 37.92C26.5744 37.8067 26.3378 37.66 26.1578 37.48C25.9844 37.3067 25.8544 37.1333 25.7678 36.96C25.6811 36.7867 25.6244 36.64 25.5978 36.52C25.5711 36.4067 25.5578 36.35 25.5578 36.35H26.5078C26.5078 36.35 26.5244 36.3967 26.5578 36.49C26.5911 36.5833 26.6544 36.69 26.7478 36.81C26.8478 36.93 26.9944 37.0367 27.1878 37.13C27.3811 37.2233 27.6411 37.27 27.9678 37.27C28.3544 37.27 28.6578 37.1933 28.8778 37.04C29.0978 36.8933 29.2544 36.7 29.3478 36.46C29.4478 36.22 29.4978 35.9667 29.4978 35.7V35.09H29.4478C29.3811 35.2033 29.2744 35.3333 29.1278 35.48C28.9878 35.62 28.8011 35.7433 28.5678 35.85C28.3344 35.95 28.0478 36 27.7078 36C27.3078 36 26.9578 35.9233 26.6578 35.77C26.3578 35.6167 26.1078 35.41 25.9078 35.15C25.7144 34.89 25.5678 34.6 25.4678 34.28C25.3678 33.96 25.3178 33.6333 25.3178 33.3C25.3178 32.9667 25.3678 32.64 25.4678 32.32C25.5678 32 25.7144 31.71 25.9078 31.45C26.1078 31.19 26.3578 30.9833 26.6578 30.83C26.9578 30.6767 27.3078 30.6 27.7078 30.6C28.0478 30.6 28.3344 30.6533 28.5678 30.76C28.8011 30.86 28.9878 30.98 29.1278 31.12C29.2744 31.26 29.3811 31.39 29.4478 31.51H29.4978V30.7H30.4478V35.69C30.4478 36.43 30.2311 37.0167 29.7978 37.45C29.3711 37.8833 28.7611 38.1 27.9678 38.1ZM27.8878 35.19C28.2411 35.19 28.5344 35.1 28.7678 34.92C29.0078 34.7333 29.1844 34.4967 29.2978 34.21C29.4178 33.9233 29.4778 33.62 29.4778 33.3C29.4778 32.98 29.4178 32.6767 29.2978 32.39C29.1844 32.0967 29.0078 31.86 28.7678 31.68C28.5344 31.5 28.2411 31.41 27.8878 31.41C27.5344 31.41 27.2378 31.5 26.9978 31.68C26.7578 31.86 26.5778 32.0967 26.4578 32.39C26.3444 32.6767 26.2878 32.98 26.2878 33.3C26.2878 33.62 26.3444 33.9233 26.4578 34.21C26.5778 34.4967 26.7578 34.7333 26.9978 34.92C27.2378 35.1 27.5344 35.19 27.8878 35.19ZM36.9682 36.1C36.6349 36.1 36.3549 36.0467 36.1282 35.94C35.9016 35.8333 35.7182 35.7067 35.5782 35.56C35.4449 35.4133 35.3382 35.28 35.2582 35.16H35.1982V36H34.2482V28.4H35.1982V31.54H35.2582C35.3382 31.4133 35.4449 31.2767 35.5782 31.13C35.7182 30.9833 35.9016 30.86 36.1282 30.76C36.3549 30.6533 36.6349 30.6 36.9682 30.6C37.3682 30.6 37.7182 30.68 38.0182 30.84C38.3182 30.9933 38.5682 31.2033 38.7682 31.47C38.9682 31.73 39.1182 32.0233 39.2182 32.35C39.3182 32.6767 39.3682 33.01 39.3682 33.35C39.3682 33.69 39.3182 34.0233 39.2182 34.35C39.1182 34.6767 38.9682 34.9733 38.7682 35.24C38.5682 35.5 38.3182 35.71 38.0182 35.87C37.7182 36.0233 37.3682 36.1 36.9682 36.1ZM36.8082 35.29C37.1682 35.29 37.4649 35.1967 37.6982 35.01C37.9382 34.8167 38.1149 34.5733 38.2282 34.28C38.3482 33.98 38.4082 33.67 38.4082 33.35C38.4082 33.0233 38.3482 32.7133 38.2282 32.42C38.1149 32.1267 37.9382 31.8867 37.6982 31.7C37.4649 31.5067 37.1682 31.41 36.8082 31.41C36.4549 31.41 36.1582 31.5067 35.9182 31.7C35.6849 31.8867 35.5082 32.1267 35.3882 32.42C35.2749 32.7133 35.2182 33.0233 35.2182 33.35C35.2182 33.67 35.2749 33.98 35.3882 34.28C35.5082 34.5733 35.6849 34.8167 35.9182 35.01C36.1582 35.1967 36.4549 35.29 36.8082 35.29ZM43.5929 29.9L42.7829 29.89L43.6429 28.09H44.6229L43.5929 29.9ZM42.9729 30.6C43.3062 30.6 43.5862 30.6533 43.8129 30.76C44.0395 30.8667 44.2229 30.9933 44.3629 31.14C44.5029 31.28 44.6095 31.4133 44.6829 31.54H44.7429V30.7H45.6929V36H44.7429V35.16H44.6829C44.6095 35.2867 44.5029 35.4233 44.3629 35.57C44.2229 35.7167 44.0395 35.8433 43.8129 35.95C43.5862 36.05 43.3062 36.1 42.9729 36.1C42.5729 36.1 42.2229 36.0233 41.9229 35.87C41.6229 35.71 41.3729 35.5 41.1729 35.24C40.9729 34.9733 40.8229 34.6767 40.7229 34.35C40.6229 34.0233 40.5729 33.69 40.5729 33.35C40.5729 33.01 40.6229 32.6767 40.7229 32.35C40.8229 32.0233 40.9729 31.73 41.1729 31.47C41.3729 31.2033 41.6229 30.9933 41.9229 30.84C42.2229 30.68 42.5729 30.6 42.9729 30.6ZM43.1329 31.41C42.7795 31.41 42.4829 31.5067 42.2429 31.7C42.0029 31.8867 41.8229 32.1267 41.7029 32.42C41.5895 32.7133 41.5329 33.0233 41.5329 33.35C41.5329 33.67 41.5895 33.98 41.7029 34.28C41.8229 34.5733 42.0029 34.8167 42.2429 35.01C42.4829 35.1967 42.7795 35.29 43.1329 35.29C43.4862 35.29 43.7795 35.1967 44.0129 35.01C44.2529 34.8167 44.4295 34.5733 44.5429 34.28C44.6629 33.98 44.7229 33.67 44.7229 33.35C44.7229 33.0233 44.6629 32.7133 44.5429 32.42C44.4295 32.1267 44.2529 31.8867 44.0129 31.7C43.7795 31.5067 43.4862 31.41 43.1329 31.41ZM49.6661 36.1C49.0994 36.1 48.6227 35.97 48.2361 35.71C47.8494 35.4433 47.5561 35.1 47.3561 34.68C47.1561 34.26 47.0561 33.8167 47.0561 33.35C47.0561 32.8767 47.1561 32.4333 47.3561 32.02C47.5561 31.6 47.8494 31.26 48.2361 31C48.6227 30.7333 49.0994 30.6 49.6661 30.6C50.2327 30.6 50.7094 30.7333 51.0961 31C51.4827 31.26 51.7761 31.6 51.9761 32.02C52.1761 32.4333 52.2761 32.8767 52.2761 33.35C52.2761 33.8167 52.1761 34.26 51.9761 34.68C51.7761 35.1 51.4827 35.4433 51.0961 35.71C50.7094 35.97 50.2327 36.1 49.6661 36.1ZM49.6661 35.27C50.0261 35.27 50.3261 35.18 50.5661 35C50.8127 34.8133 50.9961 34.5733 51.1161 34.28C51.2427 33.9867 51.3061 33.6767 51.3061 33.35C51.3061 33.0167 51.2427 32.7067 51.1161 32.42C50.9961 32.1267 50.8127 31.89 50.5661 31.71C50.3261 31.5233 50.0261 31.43 49.6661 31.43C49.3127 31.43 49.0127 31.5233 48.7661 31.71C48.5194 31.89 48.3327 32.1267 48.2061 32.42C48.0861 32.7067 48.0261 33.0167 48.0261 33.35C48.0261 33.6767 48.0861 33.9867 48.2061 34.28C48.3327 34.5733 48.5194 34.8133 48.7661 35C49.0127 35.18 49.3127 35.27 49.6661 35.27Z" fill="#7C8289"/>
</svg>
