<svg width="34" height="39" viewBox="0 0 34 39" fill="none" xmlns="http://www.w3.org/2000/svg">
<path fill-rule="evenodd" clip-rule="evenodd" d="M24 8C24 7.60218 24.158 7.22064 24.4393 6.93934C24.7206 6.65804 25.1022 6.5 25.5 6.5C25.8978 6.5 26.2794 6.65804 26.5607 6.93934C26.842 7.22064 27 7.60218 27 8V18.1515L25.5 20.4015L24 18.1515V8ZM25.5 7.5C25.3674 7.5 25.2402 7.55268 25.1464 7.64645C25.0527 7.74021 25 7.86739 25 8V17.8485L25.5 18.5985L26 17.8485V8C26 7.86739 25.9473 7.74021 25.8536 7.64645C25.7598 7.55268 25.6326 7.5 25.5 7.5Z" fill="#7C8289" stroke="#7C8289" stroke-width="0.25"/>
<path fill-rule="evenodd" clip-rule="evenodd" d="M26.5 10H24.5V9H26.5V10ZM11 4C10.7348 4 10.4804 4.10536 10.2929 4.29289C10.1054 4.48043 10 4.73478 10 5V19C10 19.2652 10.1054 19.5196 10.2929 19.7071C10.4804 19.8946 10.7348 20 11 20H21C21.2652 20 21.5196 19.8946 21.7071 19.7071C21.8946 19.5196 22 19.2652 22 19V5C22 4.73478 21.8946 4.48043 21.7071 4.29289C21.5196 4.10536 21.2652 4 21 4H11ZM9 5C9 4.46957 9.21071 3.96086 9.58579 3.58579C9.96086 3.21071 10.4696 3 11 3H21C21.5304 3 22.0391 3.21071 22.4142 3.58579C22.7893 3.96086 23 4.46957 23 5V19C23 19.5304 22.7893 20.0391 22.4142 20.4142C22.0391 20.7893 21.5304 21 21 21H11C10.4696 21 9.96086 20.7893 9.58579 20.4142C9.21071 20.0391 9 19.5304 9 19V5Z" fill="#7C8289" stroke="#7C8289" stroke-width="0.25"/>
<path fill-rule="evenodd" clip-rule="evenodd" d="M16 7.5C16 7.36739 16.0527 7.24021 16.1464 7.14645C16.2402 7.05268 16.3674 7 16.5 7H20.5C20.6326 7 20.7598 7.05268 20.8536 7.14645C20.9473 7.24021 21 7.36739 21 7.5C21 7.63261 20.9473 7.75979 20.8536 7.85355C20.7598 7.94732 20.6326 8 20.5 8H16.5C16.3674 8 16.2402 7.94732 16.1464 7.85355C16.0527 7.75979 16 7.63261 16 7.5ZM16 9.5C16 9.36739 16.0527 9.24021 16.1464 9.14645C16.2402 9.05268 16.3674 9 16.5 9H20.5C20.6326 9 20.7598 9.05268 20.8536 9.14645C20.9473 9.24021 21 9.36739 21 9.5C21 9.63261 20.9473 9.75979 20.8536 9.85355C20.7598 9.94732 20.6326 10 20.5 10H16.5C16.3674 10 16.2402 9.94732 16.1464 9.85355C16.0527 9.75979 16 9.63261 16 9.5ZM16 14C16 13.8674 16.0527 13.7402 16.1464 13.6464C16.2402 13.5527 16.3674 13.5 16.5 13.5H20.5C20.6326 13.5 20.7598 13.5527 20.8536 13.6464C20.9473 13.7402 21 13.8674 21 14C21 14.1326 20.9473 14.2598 20.8536 14.3536C20.7598 14.4473 20.6326 14.5 20.5 14.5H16.5C16.3674 14.5 16.2402 14.4473 16.1464 14.3536C16.0527 14.2598 16 14.1326 16 14ZM16 16C16 15.8674 16.0527 15.7402 16.1464 15.6464C16.2402 15.5527 16.3674 15.5 16.5 15.5H20.5C20.6326 15.5 20.7598 15.5527 20.8536 15.6464C20.9473 15.7402 21 15.8674 21 16C21 16.1326 20.9473 16.2598 20.8536 16.3536C20.7598 16.4473 20.6326 16.5 20.5 16.5H16.5C16.3674 16.5 16.2402 16.4473 16.1464 16.3536C16.0527 16.2598 16 16.1326 16 16ZM12 14V15.5H13.5V14H12ZM11.5 13H14C14.1326 13 14.2598 13.0527 14.3536 13.1464C14.4473 13.2402 14.5 13.3674 14.5 13.5V16C14.5 16.1326 14.4473 16.2598 14.3536 16.3536C14.2598 16.4473 14.1326 16.5 14 16.5H11.5C11.3674 16.5 11.2402 16.4473 11.1464 16.3536C11.0527 16.2598 11 16.1326 11 16V13.5C11 13.3674 11.0527 13.2402 11.1464 13.1464C11.2402 13.0527 11.3674 13 11.5 13ZM14.8535 7.1465C14.9472 7.24026 14.9999 7.36742 14.9999 7.5C14.9999 7.63258 14.9472 7.75974 14.8535 7.8535L12.5 10.207L11.1465 8.8535C11.0987 8.80738 11.0607 8.7522 11.0345 8.6912C11.0082 8.6302 10.9945 8.56459 10.9939 8.4982C10.9933 8.43181 11.006 8.36597 11.0311 8.30452C11.0562 8.24308 11.0934 8.18725 11.1403 8.1403C11.1873 8.09336 11.2431 8.05623 11.3045 8.03109C11.366 8.00595 11.4318 7.9933 11.4982 7.99387C11.5646 7.99445 11.6302 8.00825 11.6912 8.03445C11.7522 8.06065 11.8074 8.09874 11.8535 8.1465L12.5 8.793L14.1465 7.1465C14.2403 7.05276 14.3674 7.00011 14.5 7.00011C14.6326 7.00011 14.7597 7.05276 14.8535 7.1465Z" fill="#7C8289" stroke="#7C8289" stroke-width="0.25"/>
<path d="M3.11449 36V29.46H0.804492V28.6H6.40449V29.46H4.09449V36H3.11449ZM7.6584 36V28.4H8.6084V31.47H8.6684C8.71507 31.39 8.79173 31.28 8.8984 31.14C9.01173 31 9.17173 30.8767 9.3784 30.77C9.58507 30.6567 9.84507 30.6 10.1584 30.6C10.5451 30.6 10.8751 30.69 11.1484 30.87C11.4217 31.0433 11.6284 31.28 11.7684 31.58C11.9151 31.88 11.9884 32.2167 11.9884 32.59V36H11.0384V32.65C11.0384 32.2967 10.9384 32.0033 10.7384 31.77C10.5451 31.5367 10.2617 31.42 9.8884 31.42C9.5884 31.42 9.34507 31.4967 9.1584 31.65C8.97173 31.7967 8.83173 31.9933 8.7384 32.24C8.65173 32.48 8.6084 32.7367 8.6084 33.01V36H7.6584ZM14.0085 29.69C13.8285 29.69 13.6785 29.63 13.5585 29.51C13.4451 29.39 13.3885 29.2467 13.3885 29.08C13.3885 28.9067 13.4451 28.76 13.5585 28.64C13.6785 28.52 13.8285 28.46 14.0085 28.46C14.1818 28.46 14.3285 28.52 14.4485 28.64C14.5685 28.76 14.6285 28.9067 14.6285 29.08C14.6285 29.2467 14.5685 29.39 14.4485 29.51C14.3285 29.63 14.1818 29.69 14.0085 29.69ZM13.5385 36V30.7H14.4885V36H13.5385ZM20.5799 36.1C20.0332 36.1 19.6199 35.96 19.3399 35.68C19.0665 35.4 18.9299 35.0067 18.9299 34.5V31.48H17.9799V30.7H18.9299V29.37H19.8799V30.7H21.1699V31.48H19.8799V34.5C19.8799 34.7667 19.9532 34.9633 20.0999 35.09C20.2465 35.21 20.4599 35.27 20.7399 35.27C20.8865 35.27 21.0265 35.26 21.1599 35.24C21.2932 35.22 21.3599 35.21 21.3599 35.21V36.02C21.3599 36.02 21.2832 36.0333 21.1299 36.06C20.9765 36.0867 20.7932 36.1 20.5799 36.1ZM22.7072 36V28.4H23.6572V31.47H23.7172C23.7639 31.39 23.8406 31.28 23.9472 31.14C24.0606 31 24.2206 30.8767 24.4272 30.77C24.6339 30.6567 24.8939 30.6 25.2072 30.6C25.5939 30.6 25.9239 30.69 26.1972 30.87C26.4706 31.0433 26.6772 31.28 26.8172 31.58C26.9639 31.88 27.0372 32.2167 27.0372 32.59V36H26.0872V32.65C26.0872 32.2967 25.9872 32.0033 25.7872 31.77C25.5939 31.5367 25.3106 31.42 24.9372 31.42C24.6372 31.42 24.3939 31.4967 24.2072 31.65C24.0206 31.7967 23.8806 31.9933 23.7872 32.24C23.7006 32.48 23.6572 32.7367 23.6572 33.01V36H22.7072ZM30.2973 29.97V29.65C30.2973 29.5833 30.3106 29.5167 30.3373 29.45C30.364 29.3833 30.4173 29.33 30.4973 29.29L30.6373 29.22C30.944 29.0667 31.0973 28.8967 31.0973 28.71C31.0973 28.6167 31.0606 28.5333 30.9873 28.46C30.9206 28.38 30.8106 28.34 30.6573 28.34C30.524 28.34 30.424 28.37 30.3573 28.43C30.2973 28.4833 30.2573 28.5433 30.2373 28.61C30.2173 28.6767 30.2073 28.73 30.2073 28.77H29.5473C29.5473 28.6033 29.584 28.4433 29.6573 28.29C29.7373 28.1367 29.8573 28.01 30.0173 27.91C30.1773 27.81 30.3873 27.76 30.6473 27.76C31.0006 27.76 31.2773 27.8533 31.4773 28.04C31.684 28.22 31.7873 28.4367 31.7873 28.69C31.7873 28.8767 31.724 29.0533 31.5973 29.22C31.4706 29.38 31.2673 29.5267 30.9873 29.66L30.9473 29.68V29.97H30.2973ZM30.3173 36.1C29.7906 36.1 29.3706 35.9367 29.0573 35.61C28.744 35.2833 28.5873 34.83 28.5873 34.25V30.7H29.5373V34.2C29.5373 34.5467 29.6306 34.8133 29.8173 35C30.0106 35.1867 30.264 35.28 30.5773 35.28C30.8973 35.28 31.154 35.1967 31.3473 35.03C31.5406 34.8633 31.6806 34.65 31.7673 34.39C31.854 34.13 31.8973 33.8633 31.8973 33.59V30.7H32.7073C32.9673 30.7 33.0973 30.5633 33.0973 30.29V29.69H33.9373V30.29C33.9373 30.5967 33.8573 30.8433 33.6973 31.03C33.5373 31.2167 33.294 31.31 32.9673 31.31H32.8473V36H31.8973V35.24H31.8373C31.7973 35.32 31.7206 35.43 31.6073 35.57C31.494 35.7033 31.334 35.8267 31.1273 35.94C30.9206 36.0467 30.6506 36.1 30.3173 36.1Z" fill="#7C8289"/>
</svg>
