<svg width="18" height="18" viewBox="0 0 18 18" fill="none" xmlns="http://www.w3.org/2000/svg">
<path d="M14.25 1.5H13.5V0.75C13.5 0.336 13.1648 0 12.75 0C12.3352 0 12 0.336 12 0.75V1.5H6V0.75C6 0.336 5.66475 0 5.25 0C4.83525 0 4.5 0.336 4.5 0.75V1.5H3.75C1.68225 1.5 0 3.18225 0 5.25V14.25C0 16.3177 1.68225 18 3.75 18H14.25C16.3177 18 18 16.3177 18 14.25V5.25C18 3.18225 16.3177 1.5 14.25 1.5ZM3.75 3H14.25C15.4905 3 16.5 4.0095 16.5 5.25V6H1.5V5.25C1.5 4.0095 2.5095 3 3.75 3ZM14.25 16.5H3.75C2.5095 16.5 1.5 15.4905 1.5 14.25V7.5H16.5V14.25C16.5 15.4905 15.4905 16.5 14.25 16.5ZM14.25 10.5C14.25 10.914 13.9148 11.25 13.5 11.25H4.5C4.08525 11.25 3.75 10.914 3.75 10.5C3.75 10.086 4.08525 9.75 4.5 9.75H13.5C13.9148 9.75 14.25 10.086 14.25 10.5ZM9 13.5C9 13.914 8.66475 14.25 8.25 14.25H4.5C4.08525 14.25 3.75 13.914 3.75 13.5C3.75 13.086 4.08525 12.75 4.5 12.75H8.25C8.66475 12.75 9 13.086 9 13.5Z" fill="#9747FF"/>
</svg>
