<svg width="24" height="24" viewBox="0 0 24 24" fill="none" xmlns="http://www.w3.org/2000/svg">
<rect x="0.5" y="0.5" width="23" height="23" rx="11.5" fill="white" stroke="#E8E8E8"/>
<path d="M13.9353 12.7958C13.9353 13.8443 13.0672 14.6973 12 14.6973C10.9328 14.6973 10.065 13.8443 10.065 12.7958C10.065 11.7473 10.9328 10.8943 12 10.8943C13.0672 10.8943 13.9353 11.7476 13.9353 12.7958ZM18 10.0958V15.4965C18 16.2164 17.4059 16.8002 16.6731 16.8002H7.32692C6.59413 16.8002 6 16.2164 6 15.4965V10.0958C6 9.37579 6.59413 8.79205 7.32692 8.79205H8.95903V8.34096C8.95903 7.71093 9.47852 7.2002 10.1201 7.2002H13.8799C14.5215 7.2002 15.041 7.71093 15.041 8.34096V8.79172H16.6731C17.4059 8.79205 18 9.37579 18 10.0958ZM14.9305 12.7958C14.9305 11.2082 13.6159 9.91651 12 9.91651C10.3845 9.91651 9.06983 11.2082 9.06983 12.7958C9.06983 14.3834 10.3845 15.6751 12 15.6751C13.6159 15.6751 14.9305 14.3834 14.9305 12.7958Z" fill="#9AA4B0"/>
</svg>
