<svg width="20" height="20" viewBox="0 0 20 20" fill="none" xmlns="http://www.w3.org/2000/svg">
<path d="M10 1.66675C8.35185 1.66675 6.74068 2.15549 5.37027 3.07117C3.99986 3.98685 2.93176 5.28834 2.30103 6.81105C1.6703 8.33377 1.50527 10.0093 1.82681 11.6258C2.14836 13.2423 2.94203 14.7272 4.10747 15.8926C5.27291 17.0581 6.75776 17.8517 8.37427 18.1733C9.99078 18.4948 11.6663 18.3298 13.1891 17.6991C14.7118 17.0683 16.0133 16.0002 16.9289 14.6298C17.8446 13.2594 18.3334 11.6483 18.3334 10.0001C18.3334 8.90573 18.1178 7.8221 17.699 6.81105C17.2802 5.80001 16.6664 4.88135 15.8926 4.10752C15.1188 3.3337 14.2001 2.71987 13.1891 2.30109C12.178 1.8823 11.0944 1.66675 10 1.66675ZM10 16.6667C8.68148 16.6667 7.39255 16.2758 6.29622 15.5432C5.19989 14.8107 4.34541 13.7695 3.84083 12.5513C3.33624 11.3331 3.20422 9.99269 3.46146 8.69948C3.71869 7.40627 4.35363 6.21839 5.28598 5.28604C6.21833 4.35369 7.40622 3.71875 8.69942 3.46151C9.99263 3.20428 11.3331 3.3363 12.5512 3.84088C13.7694 4.34547 14.8106 5.19995 15.5432 6.29628C16.2757 7.39261 16.6667 8.68154 16.6667 10.0001C16.6667 11.7682 15.9643 13.4639 14.7141 14.7141C13.4638 15.9644 11.7681 16.6667 10 16.6667Z" fill="#E6E6E6"/>
<path d="M9.99998 5.83325C9.17589 5.83325 8.37031 6.07762 7.68511 6.53546C6.9999 6.9933 6.46585 7.64405 6.15048 8.4054C5.83512 9.16676 5.7526 10.0045 5.91338 10.8128C6.07415 11.621 6.47098 12.3635 7.0537 12.9462C7.63642 13.5289 8.37885 13.9258 9.18711 14.0865C9.99536 14.2473 10.8331 14.1648 11.5945 13.8494C12.3559 13.5341 13.0066 13 13.4644 12.3148C13.9223 11.6296 14.1666 10.824 14.1666 9.99992C14.1666 8.89485 13.7277 7.83504 12.9463 7.05364C12.1649 6.27224 11.1051 5.83325 9.99998 5.83325Z" fill="#017AFF"/>
</svg>
