<svg width="16" height="14" viewBox="0 0 16 14" fill="none" xmlns="http://www.w3.org/2000/svg">
<path d="M4.15473 10.8468C2.77098 9.86425 1.67598 8.58625 1.05723 7.77925C0.884205 7.55648 0.790283 7.28244 0.790283 7.00038C0.790283 6.71831 0.884205 6.44427 1.05723 6.2215C2.17698 4.75975 4.86348 1.75 7.99998 1.75C9.40698 1.75 10.7225 2.35525 11.8475 3.1555" stroke="#7C8289" stroke-width="1.5" stroke-linecap="round" stroke-linejoin="round"/>
<path d="M6.5 12.028C6.9869 12.1729 7.49199 12.2477 8 12.25C11.1365 12.25 13.823 9.24025 14.9427 7.7785C15.1157 7.55553 15.2095 7.28132 15.2094 6.99912C15.2093 6.71692 15.1152 6.4428 14.942 6.22C14.5485 5.70662 14.1263 5.21584 13.6775 4.75M9.5975 5.41525C9.38922 5.2035 9.14108 5.03508 8.86738 4.91971C8.59369 4.80435 8.29986 4.74431 8.00285 4.74306C7.70583 4.74182 7.41151 4.79939 7.13686 4.91246C6.86221 5.02554 6.61267 5.19187 6.40262 5.40187C6.19257 5.61186 6.02618 5.86137 5.91304 6.13599C5.79991 6.41062 5.74226 6.70493 5.74344 7.00194C5.74461 7.29895 5.80458 7.59279 5.91989 7.86652C6.03519 8.14024 6.20355 8.38842 6.41525 8.59675L9.5975 5.41525ZM2 13L14 1L2 13Z" stroke="#7C8289" stroke-width="1.5" stroke-linecap="round" stroke-linejoin="round"/>
</svg>
