<svg width="36" height="36" viewBox="0 0 36 36" fill="none" xmlns="http://www.w3.org/2000/svg">
<path d="M30.375 18.2109H17.7891V5.62497C17.7891 5.47028 17.6625 5.34372 17.5078 5.34372H16.5937C14.747 5.3407 12.9179 5.70286 11.2116 6.40938C9.50531 7.1159 7.95558 8.15283 6.65155 9.46052C5.36733 10.7408 4.34407 12.2583 3.63866 13.9289C2.90462 15.6615 2.52795 17.5245 2.53124 19.4062C2.52822 21.253 2.89038 23.0821 3.5969 24.7884C4.30343 26.4946 5.34036 28.0444 6.64804 29.3484C7.93827 30.6386 9.44296 31.6547 11.1164 32.3613C12.849 33.0953 14.712 33.472 16.5937 33.4687C18.4405 33.4717 20.2696 33.1096 21.9759 32.4031C23.6822 31.6965 25.2319 30.6596 26.5359 29.3519C27.8262 28.0617 28.8422 26.557 29.5488 24.8836C30.2829 23.1509 30.6595 21.2879 30.6562 19.4062V18.4922C30.6562 18.3375 30.5297 18.2109 30.375 18.2109ZM24.8098 27.6961C23.7211 28.7762 22.4301 29.6309 21.0106 30.2113C19.5911 30.7916 18.071 31.0862 16.5375 31.0781C13.4402 31.064 10.5293 29.8511 8.33905 27.6609C6.13476 25.4566 4.92187 22.5246 4.92187 19.4062C4.92187 16.2879 6.13476 13.3558 8.33905 11.1515C10.2586 9.232 12.7301 8.0613 15.3984 7.79411V20.6015H28.2058C27.9351 23.284 26.7539 25.7695 24.8098 27.6961V27.6961ZM33.4687 16.2562L33.3773 15.2648C33.0785 12.0269 31.6406 8.97184 29.3273 6.66559C27.0125 4.35511 23.9636 2.9252 20.707 2.62263L19.7121 2.53122C19.5469 2.51716 19.4062 2.64372 19.4062 2.80895V16.3125C19.4062 16.4672 19.5328 16.5937 19.6875 16.5937L33.1875 16.5586C33.3527 16.5586 33.4828 16.4179 33.4687 16.2562ZM21.7898 14.2101V5.18903C24.0045 5.65256 26.0368 6.74933 27.6398 8.34606C29.2465 9.94919 30.3469 11.9883 30.8039 14.1855L21.7898 14.2101Z" fill="#C62F3E"/>
</svg>
