<svg width="40" height="40" viewBox="0 0 36 37" fill="none" xmlns="http://www.w3.org/2000/svg">
<path d="M31 27.0569V28.6838H5V9.16089H6.625V27.0569H31ZM29.375 11.1945V16.7276C29.3748 16.8086 29.3505 16.8876 29.305 16.9545C29.2596 17.0215 29.1951 17.0732 29.12 17.1032C29.0449 17.1331 28.9626 17.1398 28.8837 17.1225C28.8047 17.1051 28.7327 17.0645 28.6771 17.0058L27.1414 15.4684L19.1058 23.511C19.0685 23.5515 19.0233 23.5837 18.973 23.6058C18.9226 23.6278 18.8683 23.6392 18.8133 23.6392C18.7584 23.6392 18.704 23.6278 18.6537 23.6058C18.6033 23.5837 18.5581 23.5515 18.5208 23.511L15.5633 20.5492L10.2821 25.8367L7.84456 23.3963L15.2708 15.9606C15.3081 15.9201 15.3533 15.8879 15.4037 15.8658C15.454 15.8438 15.5084 15.8324 15.5633 15.8324C15.6183 15.8324 15.6726 15.8438 15.723 15.8658C15.7733 15.8879 15.8185 15.9201 15.8558 15.9606L18.8133 18.9223L24.7039 13.0248L23.1683 11.4874C23.109 11.4318 23.0678 11.3597 23.0501 11.2804C23.0323 11.2011 23.0389 11.1182 23.0689 11.0427C23.0989 10.9671 23.1509 10.9024 23.2183 10.857C23.2856 10.8115 23.365 10.7874 23.4462 10.7878H28.9891C29.0925 10.7878 29.1917 10.8289 29.2648 10.9022C29.338 10.9754 29.3791 11.0747 29.3791 11.1783V11.1953V11.1945H29.375Z" fill="#24963E"/>
</svg>
