<svg width="30" height="31" viewBox="0 0 30 31" fill="none" xmlns="http://www.w3.org/2000/svg">
<path d="M13.5 20.2685V17.2591C12.3065 17.2591 11.1619 16.7835 10.318 15.9369C9.47411 15.0903 9 13.9421 9 12.7449C9 11.5476 9.47411 10.3994 10.318 9.55285C11.1619 8.70628 12.3065 8.23068 13.5 8.23068V6.72595C13.5 6.32687 13.658 5.94414 13.9393 5.66194C14.2206 5.37975 14.6022 5.22122 15 5.22122C15.3978 5.22122 15.7794 5.37975 16.0607 5.66194C16.342 5.94414 16.5 6.32687 16.5 6.72595V8.23068H16.533C17.7177 8.23068 18.8539 8.70279 19.6916 9.54316C20.5294 10.3835 21 11.5233 21 12.7118C21 13.1108 20.842 13.4936 20.5607 13.7758C20.2794 14.058 19.8978 14.2165 19.5 14.2165C19.1022 14.2165 18.7206 14.058 18.4393 13.7758C18.158 13.4936 18 13.1108 18 12.7118C18 12.3215 17.8454 11.9472 17.5703 11.6712C17.2952 11.3952 16.9221 11.2401 16.533 11.2401H16.5V14.2496C17.6935 14.2496 18.8381 14.7252 19.682 15.5718C20.5259 16.4183 21 17.5665 21 18.7638C21 19.961 20.5259 21.1092 19.682 21.9558C18.8381 22.8024 17.6935 23.278 16.5 23.278V24.7827C16.5 25.1818 16.342 25.5645 16.0607 25.8467C15.7794 26.1289 15.3978 26.2874 15 26.2874C14.6022 26.2874 14.2206 26.1289 13.9393 25.8467C13.658 25.5645 13.5 25.1818 13.5 24.7827V23.278H13.4235C12.2503 23.278 11.1252 22.8105 10.2956 21.9783C9.46605 21.1461 9 20.0174 9 18.8405C9 18.4414 9.15804 18.0587 9.43934 17.7765C9.72064 17.4943 10.1022 17.3358 10.5 17.3358C10.8978 17.3358 11.2794 17.4943 11.5607 17.7765C11.842 18.0587 12 18.4414 12 18.8405C12.0004 19.2191 12.1505 19.5821 12.4174 19.8498C12.6842 20.1175 13.0461 20.2681 13.4235 20.2685H13.5ZM16.5 20.2685C16.8978 20.2685 17.2794 20.11 17.5607 19.8278C17.842 19.5456 18 19.1629 18 18.7638C18 18.3647 17.842 17.982 17.5607 17.6998C17.2794 17.4176 16.8978 17.2591 16.5 17.2591V20.2685ZM13.5 11.2401C13.1022 11.2401 12.7206 11.3987 12.4393 11.6809C12.158 11.9631 12 12.3458 12 12.7449C12 13.1439 12.158 13.5267 12.4393 13.8089C12.7206 14.0911 13.1022 14.2496 13.5 14.2496V11.2401ZM15 30.8016C6.7155 30.8016 0 24.0649 0 15.7543C0 7.44371 6.7155 0.707031 15 0.707031C23.2845 0.707031 30 7.44371 30 15.7543C30 24.0649 23.2845 30.8016 15 30.8016ZM15 27.7922C18.1826 27.7922 21.2348 26.5239 23.4853 24.2664C25.7357 22.0088 27 18.947 27 15.7543C27 12.5617 25.7357 9.49982 23.4853 7.24229C21.2348 4.98476 18.1826 3.71649 15 3.71649C11.8174 3.71649 8.76515 4.98476 6.51472 7.24229C4.26428 9.49982 3 12.5617 3 15.7543C3 18.947 4.26428 22.0088 6.51472 24.2664C8.76515 26.5239 11.8174 27.7922 15 27.7922Z" fill="#E6AD06"/>
</svg>
