<svg width="20" height="20" viewBox="0 0 20 20" fill="none" xmlns="http://www.w3.org/2000/svg">
<path d="M9.16667 3.33325H3.33334C2.89131 3.33325 2.46739 3.50885 2.15483 3.82141C1.84227 4.13397 1.66667 4.55789 1.66667 4.99992V16.6666C1.66667 17.1086 1.84227 17.5325 2.15483 17.8451C2.46739 18.1577 2.89131 18.3333 3.33334 18.3333H15C15.442 18.3333 15.866 18.1577 16.1785 17.8451C16.4911 17.5325 16.6667 17.1086 16.6667 16.6666V10.8333" stroke="white" stroke-width="1.2" stroke-linecap="round" stroke-linejoin="round"/>
<path d="M15.4167 2.08344C15.7482 1.75192 16.1978 1.56567 16.6667 1.56567C17.1355 1.56567 17.5852 1.75192 17.9167 2.08344C18.2482 2.41496 18.4344 2.8646 18.4344 3.33344C18.4344 3.80228 18.2482 4.25192 17.9167 4.58344L10 12.5001L6.66667 13.3334L7.50001 10.0001L15.4167 2.08344Z" stroke="white" stroke-width="1.2" stroke-linecap="round" stroke-linejoin="round"/>
</svg>
