<svg width="18" height="18" viewBox="0 0 18 18" fill="none" xmlns="http://www.w3.org/2000/svg">
<g clip-path="url(#clip0_148_320)">
<path d="M3 4.49992C2.70431 4.50069 2.41141 4.44283 2.13823 4.32967C1.86505 4.21651 1.61703 4.05031 1.4085 3.84067L0.250499 2.81017C0.101912 2.67769 0.0120358 2.49162 0.000642948 2.29288C-0.0107499 2.09413 0.0572737 1.89901 0.189749 1.75042C0.322225 1.60183 0.508301 1.51196 0.707043 1.50056C0.905784 1.48917 1.10091 1.55719 1.2495 1.68967L2.43825 2.75017C2.5063 2.82659 2.58927 2.88828 2.68206 2.93144C2.77484 2.97459 2.87548 2.99831 2.97777 3.00112C3.08006 3.00393 3.18184 2.98577 3.27686 2.94778C3.37187 2.90978 3.4581 2.85274 3.53025 2.78017L6.23325 0.206919C6.37859 0.0775217 6.56854 0.00968328 6.76298 0.0177323C6.95741 0.0257813 7.1411 0.109087 7.27526 0.250055C7.40941 0.391023 7.48352 0.578615 7.48193 0.773208C7.48034 0.9678 7.40318 1.15416 7.26675 1.29292L4.575 3.85342C4.36783 4.05938 4.12209 4.22249 3.85184 4.33342C3.58159 4.44435 3.29213 4.50093 3 4.49992V4.49992ZM18 2.99992C18 2.80101 17.921 2.61024 17.7803 2.46959C17.6397 2.32894 17.4489 2.24992 17.25 2.24992H9.75C9.55109 2.24992 9.36032 2.32894 9.21967 2.46959C9.07902 2.61024 9 2.80101 9 2.99992C9 3.19883 9.07902 3.3896 9.21967 3.53025C9.36032 3.6709 9.55109 3.74992 9.75 3.74992H17.25C17.4489 3.74992 17.6397 3.6709 17.7803 3.53025C17.921 3.3896 18 3.19883 18 2.99992ZM4.575 9.85342L7.26675 7.29292C7.34188 7.22603 7.40278 7.14472 7.44585 7.05381C7.48891 6.96291 7.51324 6.86427 7.5174 6.76377C7.52156 6.66327 7.50546 6.56295 7.47006 6.4688C7.43466 6.37465 7.38069 6.28858 7.31134 6.21571C7.242 6.14285 7.15871 6.08467 7.06642 6.04466C6.97414 6.00464 6.87474 5.98359 6.77416 5.98277C6.67358 5.98195 6.57385 6.00137 6.48093 6.03988C6.388 6.07839 6.30377 6.13519 6.23325 6.20692L3.53325 8.78017C3.39047 8.91669 3.20054 8.99288 3.003 8.99288C2.80546 8.99288 2.61552 8.91669 2.47275 8.78017L1.28025 7.59142C1.1388 7.4548 0.949346 7.3792 0.752698 7.38091C0.556051 7.38262 0.367942 7.4615 0.228885 7.60055C0.0898293 7.73961 0.0109526 7.92772 0.00924383 8.12437C0.00753501 8.32102 0.0831308 8.51047 0.219749 8.65192L1.4085 9.84067C1.82825 10.2605 2.39694 10.4975 2.99062 10.4998C3.58431 10.5022 4.15488 10.2699 4.578 9.85342H4.575ZM18 8.99992C18 8.80101 17.921 8.61024 17.7803 8.46959C17.6397 8.32894 17.4489 8.24992 17.25 8.24992H9.75C9.55109 8.24992 9.36032 8.32894 9.21967 8.46959C9.07902 8.61024 9 8.80101 9 8.99992C9 9.19883 9.07902 9.3896 9.21967 9.53025C9.36032 9.6709 9.55109 9.74992 9.75 9.74992H17.25C17.4489 9.74992 17.6397 9.6709 17.7803 9.53025C17.921 9.3896 18 9.19883 18 8.99992ZM4.575 15.8534L7.26375 13.2929C7.33888 13.226 7.39978 13.1447 7.44285 13.0538C7.48591 12.9629 7.51024 12.8643 7.5144 12.7638C7.51856 12.6633 7.50246 12.563 7.46706 12.4688C7.43166 12.3746 7.37769 12.2886 7.30834 12.2157C7.239 12.1428 7.15571 12.0847 7.06342 12.0447C6.97114 12.0046 6.87175 11.9836 6.77116 11.9828C6.67058 11.982 6.57085 12.0014 6.47793 12.0399C6.385 12.0784 6.30077 12.1352 6.23025 12.2069L3.53025 14.7802C3.4581 14.8527 3.37187 14.9098 3.27686 14.9478C3.18184 14.9858 3.08006 15.0039 2.97777 15.0011C2.87548 14.9983 2.77484 14.9746 2.68206 14.9314C2.58927 14.8883 2.5063 14.8266 2.43825 14.7502L1.2495 13.6897C1.10091 13.5572 0.905784 13.4892 0.707043 13.5006C0.508301 13.512 0.322225 13.6018 0.189749 13.7504C0.0572737 13.899 -0.0107499 14.0941 0.000642948 14.2929C0.0120358 14.4916 0.101912 14.6777 0.250499 14.8102L1.4085 15.8407C1.82825 16.2605 2.39694 16.4975 2.99062 16.4998C3.58431 16.5022 4.15488 16.2699 4.578 15.8534H4.575ZM18 14.9999C18 14.801 17.921 14.6102 17.7803 14.4696C17.6397 14.3289 17.4489 14.2499 17.25 14.2499H9.75C9.55109 14.2499 9.36032 14.3289 9.21967 14.4696C9.07902 14.6102 9 14.801 9 14.9999C9 15.1988 9.07902 15.3896 9.21967 15.5303C9.36032 15.6709 9.55109 15.7499 9.75 15.7499H17.25C17.4489 15.7499 17.6397 15.6709 17.7803 15.5303C17.921 15.3896 18 15.1988 18 14.9999Z" fill="#DD3437"/>
</g>
<defs>
<clipPath id="clip0_148_320">
<rect width="18" height="18" fill="white"/>
</clipPath>
</defs>
</svg>
