<svg width="55" height="50" viewBox="0 0 55 50" fill="none" xmlns="http://www.w3.org/2000/svg">
<path d="M50.2313 8.11072V24.3387L36.0629 32.4494L27.3474 27.4572H27.3408L21.8945 24.3387V8.11072L36.0629 0L50.2313 8.11072Z" fill="url(#paint0_linear_41_95)"/>
<path d="M55 34.8033V44.9368L46.1537 50.0003L39.2558 46.052H39.2493L37.3009 44.9368V34.8033L46.1537 29.7397L55 34.8033Z" fill="url(#paint1_linear_41_95)"/>
<path d="M33.3583 33.2663V38.6475L16.6791 48.1937L6.27675 42.2361C6.27021 42.2361 6.2702 42.2296 6.26366 42.2296L0 38.6443V19.5475L16.6791 10.0039L19.8306 11.8056V25.5187L20.8571 26.1086C20.8636 26.1086 20.8702 26.1151 20.8767 26.121L33.3583 33.2663Z" fill="url(#paint2_linear_41_95)"/>
<g style="mix-blend-mode:screen" opacity="0.4">
<g style="mix-blend-mode:screen" opacity="0.4">
<path d="M48.2696 9.23229L23.8557 23.2105V9.23229L36.0627 2.24316L48.2696 9.23229Z" fill="white"/>
</g>
</g>
<g style="mix-blend-mode:screen" opacity="0.2">
<g style="mix-blend-mode:screen" opacity="0.2">
<path d="M52.9598 35.8789L39.2622 43.7199V35.9243L46.1535 31.9824L52.9598 35.8789Z" fill="white"/>
</g>
</g>
<g style="mix-blend-mode:screen" opacity="0.2">
<g style="mix-blend-mode:screen" opacity="0.2">
<path d="M17.8665 12.9283V20.6695L1.96152 29.7812V20.676L16.6792 12.2476L17.8665 12.9283Z" fill="white"/>
</g>
</g>
<g style="mix-blend-mode:multiply" opacity="0.3">
<g style="mix-blend-mode:multiply" opacity="0.3">
<path d="M33.3579 33.2658V38.647L16.6788 48.1931L6.2764 42.2355C8.08095 43.0907 9.87244 43.9925 11.6509 44.9002L14.3185 46.2812C15.1031 46.6896 15.8811 47.1046 16.6592 47.526C16.6657 47.5189 16.6722 47.5189 16.6788 47.5124C17.9472 46.7344 19.2156 45.9564 20.4971 45.2049C21.8702 44.3874 23.2497 43.5646 24.6359 42.7665C26.022 41.9684 27.4016 41.1528 28.7942 40.3618L32.6126 38.2094L32.691 33.6191L29.9515 31.9464L26.8981 30.0396C24.8778 28.7631 22.8575 27.4729 20.8764 26.1172L33.3579 33.2658Z" fill="black"/>
</g>
</g>
<g style="mix-blend-mode:multiply" opacity="0.3">
<g style="mix-blend-mode:multiply" opacity="0.3">
<path d="M50.2309 11.7798V24.3349L36.0624 32.4456L27.3469 27.4534C28.89 28.1277 30.3872 28.8726 31.8976 29.6123L34.1402 30.7469L36.0363 31.7324C37.0955 31.0711 38.1678 30.4357 39.24 29.7874C40.3973 29.0807 41.5873 28.4123 42.7576 27.7257C43.928 27.0391 45.118 26.3707 46.3079 25.7029C47.3737 25.0928 48.459 24.5028 49.5444 23.9199C49.564 23.0123 49.5901 22.0975 49.6294 21.1904C49.662 20.146 49.7078 19.1021 49.7667 18.0525C49.8739 15.9622 50.0177 13.8681 50.2309 11.7798Z" fill="black"/>
</g>
</g>
<g style="mix-blend-mode:multiply" opacity="0.3">
<g style="mix-blend-mode:multiply" opacity="0.3">
<path d="M54.9999 35.6587V44.9364L46.1536 50L39.2557 46.0516C40.5045 46.5378 41.7076 47.0954 42.9106 47.6594C43.5121 47.9506 44.1136 48.23 44.7086 48.5347L46.1209 49.2479L47.9908 48.0945L50.1877 46.8043C50.92 46.3634 51.6653 45.9614 52.4042 45.5465C53.0318 45.1899 53.6661 44.8442 54.3068 44.5092C54.3264 43.8803 54.3395 43.2507 54.3853 42.616C54.4245 41.8438 54.4572 41.073 54.5226 40.295C54.6272 38.7513 54.7776 37.2017 54.9999 35.6587Z" fill="black"/>
</g>
</g>
<g style="mix-blend-mode:multiply" opacity="0.3">
<g style="mix-blend-mode:multiply" opacity="0.3">
<path d="M46.1537 29.7397C45.5064 30.3168 44.8265 30.8354 44.1399 31.3476C43.4534 31.8598 42.7538 32.3461 42.0477 32.8129C41.6946 33.0592 41.3285 33.279 40.9754 33.5066C40.6223 33.7342 40.2562 33.9734 39.8901 34.1874C39.2885 34.5498 38.6805 34.9064 38.0724 35.2506C38.0593 35.8465 38.0528 36.4371 38.0201 37.0336C37.994 37.7727 37.9547 38.5176 37.8893 39.2567C37.8632 39.6334 37.8305 40.003 37.7913 40.3725C37.752 40.7421 37.7194 41.1175 37.667 41.4877C37.5624 42.2332 37.4644 42.9723 37.3009 43.7179V34.8033L46.1537 29.7397Z" fill="black"/>
</g>
</g>
<g style="mix-blend-mode:multiply" opacity="0.3">
<g style="mix-blend-mode:multiply" opacity="0.3">
<path d="M16.6791 10.0065C15.378 10.9596 14.0442 11.8478 12.7104 12.736C11.3701 13.6113 10.0166 14.4794 8.65667 15.3229C7.97669 15.7501 7.29018 16.1586 6.60366 16.5742L4.54409 17.8119C3.28874 18.538 2.03993 19.2842 0.77151 19.9968C0.758433 21.2811 0.764971 22.5642 0.725742 23.8485L0.673442 25.9939L0.588441 28.1405C0.562288 28.8602 0.536138 29.5734 0.490371 30.2859L0.366142 32.4326C0.268068 33.8654 0.163457 35.2982 0 36.731V19.5501L16.6791 10.0065Z" fill="black"/>
</g>
</g>
<g style="mix-blend-mode:multiply" opacity="0.3">
<g style="mix-blend-mode:multiply" opacity="0.3">
<path d="M36.065 0C34.9797 0.835709 33.8551 1.60788 32.724 2.37876C31.5929 3.14963 30.4487 3.88355 29.3045 4.60969C28.7292 4.97924 28.1407 5.32286 27.5653 5.67945C26.9899 6.03604 26.408 6.39911 25.813 6.73624C24.7669 7.34503 23.7208 7.96809 22.6616 8.55808C22.6485 9.53059 22.642 10.5031 22.6028 11.4756C22.5767 12.5901 22.5308 13.7124 22.472 14.834C22.4458 15.3916 22.4131 15.9556 22.3674 16.5125C22.3216 17.0695 22.302 17.6348 22.2497 18.1982C22.1516 19.3127 22.047 20.435 21.8966 21.5566V8.11072L36.065 0Z" fill="black"/>
</g>
</g>
<defs>
<linearGradient id="paint0_linear_41_95" x1="36.0629" y1="1.13573" x2="36.0629" y2="31.8004" gradientUnits="userSpaceOnUse">
<stop stop-color="#00F3FF"/>
<stop offset="0.238" stop-color="#00EFFC"/>
<stop offset="0.44" stop-color="#00E5F4"/>
<stop offset="0.629" stop-color="#00D3E7"/>
<stop offset="0.81" stop-color="#00BAD4"/>
<stop offset="0.983" stop-color="#009BBC"/>
<stop offset="1" stop-color="#0098BA"/>
</linearGradient>
<linearGradient id="paint1_linear_41_95" x1="46.1505" y1="30.6312" x2="46.1505" y2="47.6704" gradientUnits="userSpaceOnUse">
<stop stop-color="#3E6896"/>
<stop offset="0.247" stop-color="#355881"/>
<stop offset="0.75" stop-color="#1F324E"/>
<stop offset="1" stop-color="#131D32"/>
</linearGradient>
<linearGradient id="paint2_linear_41_95" x1="9.37366" y1="14.8158" x2="21.9179" y2="42.4838" gradientUnits="userSpaceOnUse">
<stop stop-color="#49A09D"/>
<stop offset="0.149" stop-color="#4A989B"/>
<stop offset="0.375" stop-color="#4E8396"/>
<stop offset="0.65" stop-color="#54618E"/>
<stop offset="0.96" stop-color="#5D3283"/>
<stop offset="1" stop-color="#5F2C82"/>
</linearGradient>
</defs>
</svg>
