<svg width="126" height="71" viewBox="0 0 126 71" fill="none" xmlns="http://www.w3.org/2000/svg">
<path d="M3.276 55.534L5.054 53.406H6.552L8.33 55.534H6.818L5.796 54.302L4.788 55.534H3.276ZM5.796 67.14C4.94667 67.14 4.2 66.9907 3.556 66.692C2.912 66.384 2.37067 65.978 1.932 65.474C1.50267 64.9607 1.176 64.3867 0.952 63.752C0.737333 63.1173 0.63 62.4687 0.63 61.806C0.63 61.1433 0.737333 60.4993 0.952 59.874C1.176 59.2393 1.50267 58.67 1.932 58.166C2.37067 57.662 2.912 57.2607 3.556 56.962C4.2 56.654 4.94667 56.5 5.796 56.5C6.64533 56.5 7.392 56.654 8.036 56.962C8.68 57.2607 9.21667 57.662 9.646 58.166C10.0847 58.67 10.4113 59.2393 10.626 59.874C10.85 60.4993 10.962 61.1433 10.962 61.806C10.962 62.4687 10.85 63.1173 10.626 63.752C10.4113 64.3867 10.0847 64.9607 9.646 65.474C9.21667 65.978 8.68 66.384 8.036 66.692C7.392 66.9907 6.64533 67.14 5.796 67.14ZM5.796 65.418C6.496 65.418 7.07933 65.2453 7.546 64.9C8.022 64.5547 8.38133 64.1067 8.624 63.556C8.876 63.0053 9.002 62.422 9.002 61.806C9.002 61.1993 8.876 60.6253 8.624 60.084C8.38133 59.5333 8.022 59.0853 7.546 58.74C7.07933 58.3947 6.496 58.222 5.796 58.222C5.096 58.222 4.508 58.3947 4.032 58.74C3.556 59.0853 3.19667 59.5333 2.954 60.084C2.71133 60.6253 2.59 61.1993 2.59 61.806C2.59 62.422 2.71133 63.0053 2.954 63.556C3.19667 64.1067 3.556 64.5547 4.032 64.9C4.508 65.2453 5.096 65.418 5.796 65.418ZM12.4618 67V59.58H14.3238V60.644H14.4078C14.4824 60.5133 14.5991 60.3547 14.7578 60.168C14.9164 59.972 15.1358 59.804 15.4158 59.664C15.6958 59.5147 16.0504 59.44 16.4798 59.44C17.0491 59.44 17.5158 59.5707 17.8798 59.832C18.2531 60.084 18.5284 60.42 18.7058 60.84C18.8924 61.26 18.9857 61.7127 18.9857 62.198V67H17.1238V62.45C17.1238 62.0487 17.0118 61.7033 16.7878 61.414C16.5638 61.1247 16.2278 60.98 15.7798 60.98C15.4344 60.98 15.1544 61.0687 14.9398 61.246C14.7251 61.414 14.5664 61.6333 14.4638 61.904C14.3704 62.1747 14.3238 62.4593 14.3238 62.758V67H12.4618ZM26.8441 67V58.292H23.6521V56.64H31.9401V58.292H28.7481V67H26.8441ZM33.5197 67V56.36H35.3817V60.644H35.4657C35.5404 60.5133 35.6571 60.3547 35.8157 60.168C35.9744 59.972 36.1937 59.804 36.4737 59.664C36.7537 59.5147 37.1084 59.44 37.5377 59.44C38.1071 59.44 38.5737 59.5707 38.9377 59.832C39.3111 60.084 39.5864 60.42 39.7637 60.84C39.9504 61.26 40.0437 61.7127 40.0437 62.198V67H38.1817V62.45C38.1817 62.0487 38.0697 61.7033 37.8457 61.414C37.6217 61.1247 37.2857 60.98 36.8377 60.98C36.4924 60.98 36.2124 61.0687 35.9977 61.246C35.7831 61.414 35.6244 61.6333 35.5217 61.904C35.4284 62.1747 35.3817 62.4593 35.3817 62.758V67H33.5197ZM42.8943 58.432C42.5676 58.432 42.2969 58.3247 42.0823 58.11C41.8769 57.8953 41.7743 57.6387 41.7743 57.34C41.7743 57.0413 41.8769 56.7847 42.0823 56.57C42.2969 56.3553 42.5676 56.248 42.8943 56.248C43.2209 56.248 43.4916 56.3553 43.7063 56.57C43.9209 56.7847 44.0283 57.0413 44.0283 57.34C44.0283 57.6387 43.9209 57.8953 43.7063 58.11C43.4916 58.3247 43.2209 58.432 42.8943 58.432ZM41.9703 67V59.58H43.8323V67H41.9703ZM53.809 67.14C52.969 67.14 52.2317 66.9907 51.597 66.692C50.9717 66.384 50.4443 65.978 50.015 65.474C49.595 64.9607 49.2777 64.3913 49.063 63.766C48.8577 63.1313 48.755 62.4827 48.755 61.82C48.755 61.1573 48.8577 60.5087 49.063 59.874C49.2777 59.2393 49.595 58.67 50.015 58.166C50.4443 57.6527 50.9717 57.2467 51.597 56.948C52.2317 56.6493 52.969 56.5 53.809 56.5C54.509 56.5 55.111 56.5887 55.615 56.766C56.119 56.9433 56.539 57.172 56.875 57.452C57.211 57.732 57.477 58.0307 57.673 58.348C57.8783 58.6653 58.0323 58.964 58.135 59.244C58.2377 59.524 58.303 59.7527 58.331 59.93C58.3683 60.1073 58.387 60.196 58.387 60.196H56.497C56.497 60.196 56.4783 60.1307 56.441 60C56.413 59.8693 56.3477 59.706 56.245 59.51C56.1517 59.3047 56.007 59.104 55.811 58.908C55.615 58.712 55.3537 58.5487 55.027 58.418C54.7097 58.2873 54.313 58.222 53.837 58.222C53.3143 58.222 52.857 58.3247 52.465 58.53C52.073 58.726 51.7463 58.9967 51.485 59.342C51.2237 59.6873 51.0277 60.0747 50.897 60.504C50.7757 60.9333 50.715 61.372 50.715 61.82C50.715 62.268 50.7757 62.7067 50.897 63.136C51.0277 63.556 51.2237 63.9387 51.485 64.284C51.7463 64.6293 52.073 64.9047 52.465 65.11C52.857 65.3153 53.3143 65.418 53.837 65.418C54.313 65.418 54.7097 65.3527 55.027 65.222C55.3537 65.082 55.615 64.914 55.811 64.718C56.007 64.522 56.1517 64.326 56.245 64.13C56.3477 63.934 56.413 63.7707 56.441 63.64C56.4783 63.5 56.497 63.43 56.497 63.43H58.387C58.387 63.43 58.3683 63.5187 58.331 63.696C58.303 63.8733 58.2377 64.1067 58.135 64.396C58.0323 64.676 57.8783 64.9747 57.673 65.292C57.477 65.6 57.211 65.8987 56.875 66.188C56.539 66.468 56.119 66.6967 55.615 66.874C55.111 67.0513 54.509 67.14 53.809 67.14ZM61.0935 58.6L62.8575 56.136H64.3695L66.1335 58.6H64.6215L63.6135 57.13L62.6055 58.6H61.0935ZM63.6135 67.14C62.7922 67.14 62.0968 66.958 61.5275 66.594C60.9675 66.23 60.5382 65.7587 60.2395 65.18C59.9502 64.592 59.8055 63.962 59.8055 63.29C59.8055 62.618 59.9502 61.9927 60.2395 61.414C60.5382 60.826 60.9675 60.35 61.5275 59.986C62.0968 59.622 62.7922 59.44 63.6135 59.44C64.4348 59.44 65.1255 59.622 65.6855 59.986C66.2548 60.35 66.6842 60.826 66.9735 61.414C67.2722 61.9927 67.4215 62.618 67.4215 63.29C67.4215 63.962 67.2722 64.592 66.9735 65.18C66.6842 65.7587 66.2548 66.23 65.6855 66.594C65.1255 66.958 64.4348 67.14 63.6135 67.14ZM63.6135 65.586C64.0242 65.586 64.3742 65.4787 64.6635 65.264C64.9528 65.0493 65.1722 64.7693 65.3215 64.424C65.4708 64.0693 65.5455 63.6913 65.5455 63.29C65.5455 62.8793 65.4708 62.5013 65.3215 62.156C65.1722 61.8107 64.9528 61.5307 64.6635 61.316C64.3742 61.1013 64.0242 60.994 63.6135 60.994C63.2028 60.994 62.8528 61.1013 62.5635 61.316C62.2742 61.5307 62.0548 61.8107 61.9055 62.156C61.7562 62.5013 61.6815 62.8793 61.6815 63.29C61.6815 63.6913 61.7562 64.0693 61.9055 64.424C62.0548 64.7693 62.2742 65.0493 62.5635 65.264C62.8528 65.4787 63.2028 65.586 63.6135 65.586ZM69.0223 67V59.58H70.8843V60.644H70.9683C71.043 60.5133 71.1596 60.3547 71.3183 60.168C71.477 59.972 71.6963 59.804 71.9763 59.664C72.2563 59.5147 72.611 59.44 73.0403 59.44C73.6096 59.44 74.0763 59.5707 74.4403 59.832C74.8136 60.084 75.089 60.42 75.2663 60.84C75.453 61.26 75.5463 61.7127 75.5463 62.198V67H73.6843V62.45C73.6843 62.0487 73.5723 61.7033 73.3483 61.414C73.1243 61.1247 72.7883 60.98 72.3403 60.98C71.995 60.98 71.715 61.0687 71.5003 61.246C71.2856 61.414 71.127 61.6333 71.0243 61.904C70.931 62.1747 70.8843 62.4593 70.8843 62.758V67H69.0223ZM80.9494 69.968C80.2868 69.968 79.7361 69.8793 79.2974 69.702C78.8681 69.534 78.5274 69.324 78.2754 69.072C78.0234 68.8293 77.8368 68.582 77.7154 68.33C77.5941 68.078 77.5148 67.868 77.4774 67.7C77.4401 67.532 77.4214 67.448 77.4214 67.448H79.2414C79.2414 67.448 79.2601 67.4993 79.2974 67.602C79.3348 67.7047 79.4094 67.8213 79.5214 67.952C79.6428 68.092 79.8154 68.2133 80.0394 68.316C80.2634 68.4187 80.5621 68.47 80.9354 68.47C81.5888 68.47 82.0601 68.2833 82.3494 67.91C82.6388 67.5367 82.7834 67.084 82.7834 66.552V65.726H82.6994C82.5968 65.8847 82.4474 66.0573 82.2514 66.244C82.0648 66.4307 81.8174 66.5893 81.5094 66.72C81.2108 66.8507 80.8468 66.916 80.4174 66.916C79.8668 66.916 79.3861 66.8087 78.9754 66.594C78.5648 66.3793 78.2194 66.0947 77.9394 65.74C77.6594 65.3853 77.4494 64.9887 77.3094 64.55C77.1788 64.102 77.1134 63.6447 77.1134 63.178C77.1134 62.7113 77.1788 62.2587 77.3094 61.82C77.4494 61.372 77.6594 60.9707 77.9394 60.616C78.2194 60.252 78.5648 59.9673 78.9754 59.762C79.3861 59.5473 79.8668 59.44 80.4174 59.44C80.8468 59.44 81.2108 59.5053 81.5094 59.636C81.8174 59.7667 82.0648 59.9253 82.2514 60.112C82.4474 60.2893 82.5968 60.4573 82.6994 60.616H82.7834V59.58H84.6454V66.538C84.6454 67.182 84.5101 67.7607 84.2394 68.274C83.9688 68.7967 83.5581 69.2073 83.0074 69.506C82.4661 69.814 81.7801 69.968 80.9494 69.968ZM80.9074 65.418C81.3274 65.418 81.6774 65.3107 81.9574 65.096C82.2374 64.872 82.4474 64.592 82.5874 64.256C82.7274 63.9107 82.7974 63.5513 82.7974 63.178C82.7974 62.7953 82.7274 62.436 82.5874 62.1C82.4474 61.7547 82.2374 61.4747 81.9574 61.26C81.6774 61.0453 81.3274 60.938 80.9074 60.938C80.4781 60.938 80.1188 61.0453 79.8294 61.26C79.5494 61.4747 79.3394 61.7547 79.1994 62.1C79.0594 62.436 78.9894 62.7953 78.9894 63.178C78.9894 63.5513 79.0594 63.9107 79.1994 64.256C79.3394 64.592 79.5494 64.872 79.8294 65.096C80.1188 65.3107 80.4781 65.418 80.9074 65.418ZM94.4281 67.14C93.5881 67.14 92.8508 66.9907 92.2161 66.692C91.5908 66.384 91.0635 65.978 90.6341 65.474C90.2141 64.9607 89.8968 64.3913 89.6821 63.766C89.4768 63.1313 89.3741 62.4827 89.3741 61.82C89.3741 61.1573 89.4768 60.5087 89.6821 59.874C89.8968 59.2393 90.2141 58.67 90.6341 58.166C91.0635 57.6527 91.5908 57.2467 92.2161 56.948C92.8508 56.6493 93.5881 56.5 94.4281 56.5C95.1281 56.5 95.7301 56.5887 96.2341 56.766C96.7381 56.9433 97.1581 57.172 97.4941 57.452C97.8301 57.732 98.0961 58.0307 98.2921 58.348C98.4975 58.6653 98.6515 58.964 98.7541 59.244C98.8568 59.524 98.9221 59.7527 98.9501 59.93C98.9875 60.1073 99.0061 60.196 99.0061 60.196H97.1161C97.1161 60.196 97.0975 60.1307 97.0601 60C97.0321 59.8693 96.9668 59.706 96.8641 59.51C96.7708 59.3047 96.6261 59.104 96.4301 58.908C96.2341 58.712 95.9728 58.5487 95.6461 58.418C95.3288 58.2873 94.9321 58.222 94.4561 58.222C93.9335 58.222 93.4761 58.3247 93.0841 58.53C92.6921 58.726 92.3655 58.9967 92.1041 59.342C91.8428 59.6873 91.6468 60.0747 91.5161 60.504C91.3948 60.9333 91.3341 61.372 91.3341 61.82C91.3341 62.268 91.3948 62.7067 91.5161 63.136C91.6468 63.556 91.8428 63.9387 92.1041 64.284C92.3655 64.6293 92.6921 64.9047 93.0841 65.11C93.4761 65.3153 93.9335 65.418 94.4561 65.418C94.9321 65.418 95.3288 65.3527 95.6461 65.222C95.9728 65.082 96.2341 64.914 96.4301 64.718C96.6261 64.522 96.7708 64.326 96.8641 64.13C96.9668 63.934 97.0321 63.7707 97.0601 63.64C97.0975 63.5 97.1161 63.43 97.1161 63.43H99.0061C99.0061 63.43 98.9875 63.5187 98.9501 63.696C98.9221 63.8733 98.8568 64.1067 98.7541 64.396C98.6515 64.676 98.4975 64.9747 98.2921 65.292C98.0961 65.6 97.8301 65.8987 97.4941 66.188C97.1581 66.468 96.7381 66.6967 96.2341 66.874C95.7301 67.0513 95.1281 67.14 94.4281 67.14ZM100.649 67V56.36H102.511V60.644H102.595C102.669 60.5133 102.786 60.3547 102.945 60.168C103.103 59.972 103.323 59.804 103.603 59.664C103.883 59.5147 104.237 59.44 104.667 59.44C105.236 59.44 105.703 59.5707 106.067 59.832C106.44 60.084 106.715 60.42 106.893 60.84C107.079 61.26 107.173 61.7127 107.173 62.198V67H105.311V62.45C105.311 62.0487 105.199 61.7033 104.975 61.414C104.751 61.1247 104.415 60.98 103.967 60.98C103.621 60.98 103.341 61.0687 103.127 61.246C102.912 61.414 102.753 61.6333 102.651 61.904C102.557 62.1747 102.511 62.4593 102.511 62.758V67H100.649ZM112.865 58.516L111.437 58.502L112.599 55.996H114.377L112.865 58.516ZM111.409 67.14C110.634 67.14 110.046 66.902 109.645 66.426C109.253 65.95 109.057 65.3387 109.057 64.592V59.58H110.905V64.284C110.905 64.6853 111.012 65.0073 111.227 65.25C111.442 65.4833 111.745 65.6 112.137 65.6C112.482 65.6 112.762 65.5113 112.977 65.334C113.192 65.1567 113.346 64.928 113.439 64.648C113.542 64.368 113.593 64.0787 113.593 63.78V59.58H114.951C115.315 59.58 115.497 59.3887 115.497 59.006V58.068H117.023V59.062C117.023 59.538 116.897 59.9113 116.645 60.182C116.402 60.4527 116.038 60.588 115.553 60.588H115.455V67H113.593V65.936H113.509C113.416 66.104 113.28 66.2813 113.103 66.468C112.935 66.6547 112.711 66.8133 112.431 66.944C112.16 67.0747 111.82 67.14 111.409 67.14ZM121.212 67.14C120.577 67.14 120.022 67.0327 119.546 66.818C119.07 66.594 118.673 66.3 118.356 65.936C118.039 65.5627 117.801 65.1473 117.642 64.69C117.493 64.2327 117.418 63.766 117.418 63.29C117.418 62.814 117.493 62.3473 117.642 61.89C117.801 61.4327 118.034 61.022 118.342 60.658C118.659 60.2847 119.056 59.9907 119.532 59.776C120.008 59.552 120.568 59.44 121.212 59.44C121.847 59.44 122.374 59.5333 122.794 59.72C123.214 59.9067 123.545 60.14 123.788 60.42C124.04 60.7 124.227 60.98 124.348 61.26C124.469 61.5307 124.549 61.7593 124.586 61.946C124.623 62.1327 124.642 62.226 124.642 62.226H122.892C122.892 62.226 122.873 62.1653 122.836 62.044C122.799 61.9133 122.724 61.764 122.612 61.596C122.5 61.428 122.332 61.2787 122.108 61.148C121.893 61.0173 121.604 60.952 121.24 60.952C120.811 60.952 120.447 61.064 120.148 61.288C119.859 61.5027 119.639 61.7873 119.49 62.142C119.341 62.4967 119.266 62.8793 119.266 63.29C119.266 63.7007 119.341 64.0833 119.49 64.438C119.639 64.7927 119.859 65.082 120.148 65.306C120.447 65.5207 120.811 65.628 121.24 65.628C121.604 65.628 121.893 65.5627 122.108 65.432C122.332 65.3013 122.5 65.152 122.612 64.984C122.724 64.816 122.799 64.6713 122.836 64.55C122.873 64.4193 122.892 64.354 122.892 64.354H124.642C124.642 64.354 124.623 64.4473 124.586 64.634C124.549 64.8207 124.469 65.054 124.348 65.334C124.227 65.6047 124.04 65.88 123.788 66.16C123.545 66.44 123.214 66.6733 122.794 66.86C122.374 67.0467 121.847 67.14 121.212 67.14Z" fill="black"/>
<path d="M85.2313 8.11072V24.3386L71.0629 32.4494L62.3474 27.4572H62.3408L56.8945 24.3386V8.11072L71.0629 0L85.2313 8.11072Z" fill="url(#paint0_linear_41_93)"/>
<path d="M90 34.8033V44.9368L81.1537 50.0003L74.2558 46.052H74.2493L72.3009 44.9368V34.8033L81.1537 29.7397L90 34.8033Z" fill="url(#paint1_linear_41_93)"/>
<path d="M68.3583 33.2663V38.6475L51.6791 48.1937L41.2767 42.2361C41.2702 42.2361 41.2702 42.2296 41.2637 42.2296L35 38.6443V19.5475L51.6791 10.0039L54.8306 11.8056V25.5187L55.8571 26.1086C55.8636 26.1086 55.8702 26.1151 55.8767 26.121L68.3583 33.2663Z" fill="url(#paint2_linear_41_93)"/>
<g style="mix-blend-mode:screen" opacity="0.4">
<g style="mix-blend-mode:screen" opacity="0.4">
<path d="M83.2696 9.23229L58.8557 23.2105V9.23229L71.0627 2.24316L83.2696 9.23229Z" fill="white"/>
</g>
</g>
<g style="mix-blend-mode:screen" opacity="0.2">
<g style="mix-blend-mode:screen" opacity="0.2">
<path d="M87.9598 35.8789L74.2622 43.7199V35.9243L81.1535 31.9824L87.9598 35.8789Z" fill="white"/>
</g>
</g>
<g style="mix-blend-mode:screen" opacity="0.2">
<g style="mix-blend-mode:screen" opacity="0.2">
<path d="M52.8665 12.9283V20.6695L36.9615 29.7812V20.676L51.6792 12.2476L52.8665 12.9283Z" fill="white"/>
</g>
</g>
<g style="mix-blend-mode:multiply" opacity="0.3">
<g style="mix-blend-mode:multiply" opacity="0.3">
<path d="M68.3579 33.2658V38.647L51.6788 48.1931L41.2764 42.2355C43.081 43.0907 44.8724 43.9925 46.6509 44.9002L49.3185 46.2812C50.1031 46.6896 50.8811 47.1046 51.6592 47.526C51.6657 47.5189 51.6722 47.5189 51.6788 47.5124C52.9472 46.7344 54.2156 45.9564 55.4971 45.2049C56.8702 44.3874 58.2497 43.5646 59.6359 42.7665C61.022 41.9684 62.4016 41.1528 63.7942 40.3618L67.6126 38.2094L67.691 33.6191L64.9515 31.9464L61.8981 30.0396C59.8778 28.7631 57.8575 27.4729 55.8764 26.1172L68.3579 33.2658Z" fill="black"/>
</g>
</g>
<g style="mix-blend-mode:multiply" opacity="0.3">
<g style="mix-blend-mode:multiply" opacity="0.3">
<path d="M85.2309 11.7798V24.3349L71.0624 32.4456L62.3469 27.4534C63.89 28.1277 65.3872 28.8726 66.8976 29.6123L69.1402 30.7469L71.0363 31.7324C72.0955 31.0711 73.1678 30.4357 74.24 29.7874C75.3973 29.0807 76.5873 28.4123 77.7576 27.7257C78.928 27.0391 80.118 26.3707 81.3079 25.7029C82.3737 25.0928 83.459 24.5028 84.5444 23.9199C84.564 23.0123 84.5901 22.0975 84.6294 21.1904C84.662 20.146 84.7078 19.1021 84.7667 18.0525C84.8739 15.9622 85.0177 13.8681 85.2309 11.7798Z" fill="black"/>
</g>
</g>
<g style="mix-blend-mode:multiply" opacity="0.3">
<g style="mix-blend-mode:multiply" opacity="0.3">
<path d="M89.9999 35.6587V44.9364L81.1536 50L74.2557 46.0516C75.5045 46.5378 76.7076 47.0954 77.9106 47.6594C78.5121 47.9506 79.1136 48.23 79.7086 48.5347L81.1209 49.2479L82.9908 48.0945L85.1877 46.8043C85.92 46.3634 86.6653 45.9614 87.4042 45.5465C88.0318 45.1899 88.6661 44.8442 89.3068 44.5092C89.3264 43.8803 89.3395 43.2507 89.3853 42.616C89.4245 41.8438 89.4572 41.073 89.5226 40.295C89.6272 38.7513 89.7776 37.2017 89.9999 35.6587Z" fill="black"/>
</g>
</g>
<g style="mix-blend-mode:multiply" opacity="0.3">
<g style="mix-blend-mode:multiply" opacity="0.3">
<path d="M81.1537 29.7397C80.5064 30.3168 79.8265 30.8354 79.1399 31.3476C78.4534 31.8598 77.7538 32.3461 77.0477 32.8129C76.6946 33.0592 76.3285 33.279 75.9754 33.5066C75.6223 33.7342 75.2562 33.9734 74.8901 34.1874C74.2885 34.5498 73.6805 34.9064 73.0724 35.2506C73.0593 35.8465 73.0528 36.4371 73.0201 37.0336C72.994 37.7727 72.9547 38.5176 72.8893 39.2567C72.8632 39.6334 72.8305 40.003 72.7913 40.3725C72.752 40.7421 72.7194 41.1175 72.667 41.4877C72.5624 42.2332 72.4644 42.9723 72.3009 43.7179V34.8033L81.1537 29.7397Z" fill="black"/>
</g>
</g>
<g style="mix-blend-mode:multiply" opacity="0.3">
<g style="mix-blend-mode:multiply" opacity="0.3">
<path d="M51.6791 10.0065C50.378 10.9596 49.0442 11.8478 47.7104 12.736C46.3701 13.6113 45.0166 14.4794 43.6567 15.3229C42.9767 15.7501 42.2902 16.1586 41.6037 16.5742L39.5441 17.8119C38.2887 18.538 37.0399 19.2842 35.7715 19.9968C35.7584 21.2811 35.765 22.5642 35.7257 23.8485L35.6734 25.9939L35.5884 28.1405C35.5623 28.8602 35.5361 29.5734 35.4904 30.2859L35.3661 32.4326C35.2681 33.8654 35.1635 35.2982 35 36.731V19.5501L51.6791 10.0065Z" fill="black"/>
</g>
</g>
<g style="mix-blend-mode:multiply" opacity="0.3">
<g style="mix-blend-mode:multiply" opacity="0.3">
<path d="M71.065 0C69.9797 0.835709 68.8551 1.60788 67.724 2.37876C66.5929 3.14963 65.4487 3.88355 64.3045 4.60969C63.7292 4.97924 63.1407 5.32286 62.5653 5.67945C61.9899 6.03604 61.408 6.39911 60.813 6.73624C59.7669 7.34503 58.7208 7.96809 57.6616 8.55808C57.6485 9.53059 57.642 10.5031 57.6028 11.4756C57.5767 12.5901 57.5308 13.7124 57.472 14.834C57.4458 15.3916 57.4131 15.9556 57.3674 16.5126C57.3216 17.0695 57.302 17.6348 57.2497 18.1982C57.1516 19.3127 57.047 20.435 56.8966 21.5566V8.11072L71.065 0Z" fill="black"/>
</g>
</g>
<defs>
<linearGradient id="paint0_linear_41_93" x1="71.0629" y1="1.13573" x2="71.0629" y2="31.8004" gradientUnits="userSpaceOnUse">
<stop stop-color="#00F3FF"/>
<stop offset="0.238" stop-color="#00EFFC"/>
<stop offset="0.44" stop-color="#00E5F4"/>
<stop offset="0.629" stop-color="#00D3E7"/>
<stop offset="0.81" stop-color="#00BAD4"/>
<stop offset="0.983" stop-color="#009BBC"/>
<stop offset="1" stop-color="#0098BA"/>
</linearGradient>
<linearGradient id="paint1_linear_41_93" x1="81.1505" y1="30.6312" x2="81.1505" y2="47.6704" gradientUnits="userSpaceOnUse">
<stop stop-color="#3E6896"/>
<stop offset="0.247" stop-color="#355881"/>
<stop offset="0.75" stop-color="#1F324E"/>
<stop offset="1" stop-color="#131D32"/>
</linearGradient>
<linearGradient id="paint2_linear_41_93" x1="44.3737" y1="14.8158" x2="56.9179" y2="42.4838" gradientUnits="userSpaceOnUse">
<stop stop-color="#49A09D"/>
<stop offset="0.149" stop-color="#4A989B"/>
<stop offset="0.375" stop-color="#4E8396"/>
<stop offset="0.65" stop-color="#54618E"/>
<stop offset="0.96" stop-color="#5D3283"/>
<stop offset="1" stop-color="#5F2C82"/>
</linearGradient>
</defs>
</svg>
