<svg width="18" height="18" viewBox="0 0 18 18" fill="none" xmlns="http://www.w3.org/2000/svg">
<g clip-path="url(#clip0_148_358)">
<path d="M18 5.25V6C18 6.414 17.6647 6.75 17.25 6.75C16.8353 6.75 16.5 6.414 16.5 6V5.25C16.5 4.0095 15.4905 3 14.25 3H3.75C2.5095 3 1.5 4.0095 1.5 5.25V12.75C1.5 13.9905 2.5095 15 3.75 15H6C6.41475 15 6.75 15.336 6.75 15.75C6.75 16.164 6.41475 16.5 6 16.5H3.75C1.68225 16.5 0 14.8177 0 12.75V5.25C0 3.18225 1.68225 1.5 3.75 1.5H14.25C16.3177 1.5 18 3.18225 18 5.25ZM11.25 6.75H14.25C14.6648 6.75 15 6.414 15 6C15 5.586 14.6648 5.25 14.25 5.25H11.25C10.8352 5.25 10.5 5.586 10.5 6C10.5 6.414 10.8352 6.75 11.25 6.75ZM17.3407 8.90925C17.7653 9.33375 18 9.89925 18 10.5C18 11.1007 17.7653 11.6663 17.3407 12.0915L12.3105 17.1217C11.7442 17.688 10.9905 18.0007 10.1895 18.0007H9C8.58525 18.0007 8.25 17.6647 8.25 17.2507V16.0613C8.25 15.2603 8.562 14.5065 9.129 13.9403L14.1593 8.91C15.0367 8.0325 16.4633 8.0325 17.3407 8.91V8.90925ZM16.5 10.5C16.5 10.2998 16.422 10.1115 16.2803 9.96975C15.987 9.6765 15.513 9.67725 15.2197 9.96975L10.1895 15C9.9105 15.2797 9.75 15.666 9.75 16.0605V16.5H10.1895C10.59 16.5 10.9665 16.344 11.25 16.0605L16.2803 11.0302C16.422 10.8885 16.5 10.7002 16.5 10.5ZM6.75 11.25H5.049C4.782 11.25 4.533 11.106 4.39875 10.875C4.1925 10.5157 3.73425 10.392 3.37425 10.6012C3.01575 10.809 2.89275 11.2673 3.10125 11.6258C3.50175 12.3195 4.24875 12.75 5.04975 12.75H5.25075C5.25075 13.164 5.586 13.5 6.00075 13.5C6.4155 13.5 6.75075 13.164 6.75075 12.75C7.99125 12.75 9.00075 11.7405 9.00075 10.5C9.00075 9.48 8.27025 8.6175 7.2645 8.45025L4.98375 8.07C4.704 8.0235 4.50075 7.7835 4.50075 7.5C4.50075 7.08675 4.83675 6.75 5.25075 6.75H6.95175C7.21875 6.75 7.46775 6.894 7.602 7.125C7.80825 7.4835 8.26575 7.6065 8.6265 7.39875C8.985 7.191 9.108 6.73275 8.8995 6.37425C8.499 5.6805 7.752 5.24925 6.951 5.24925H6.75C6.75 4.83525 6.41475 4.49925 6 4.49925C5.58525 4.49925 5.25 4.83525 5.25 5.24925C4.0095 5.24925 3 6.25875 3 7.49925C3 8.51925 3.7305 9.38175 4.73625 9.549L7.017 9.92925C7.29675 9.97575 7.5 10.2157 7.5 10.4992C7.5 10.9125 7.164 11.2492 6.75 11.2492V11.25ZM10.5 9C10.5 9.414 10.836 9.75 11.25 9.75C11.664 9.75 12 9.414 12 9C12 8.586 11.664 8.25 11.25 8.25C10.836 8.25 10.5 8.586 10.5 9Z" fill="#27A844"/>
</g>
<defs>
<clipPath id="clip0_148_358">
<rect width="18" height="18" fill="white"/>
</clipPath>
</defs>
</svg>
