<svg width="20" height="20" viewBox="0 0 20 20" fill="none" xmlns="http://www.w3.org/2000/svg">
<path d="M10 18.3334C8.35185 18.3334 6.74068 17.8447 5.37027 16.929C3.99986 16.0133 2.93176 14.7118 2.30103 13.1891C1.6703 11.6664 1.50527 9.99084 1.82681 8.37433C2.14836 6.75782 2.94203 5.27297 4.10747 4.10753C5.27291 2.94209 6.75776 2.14842 8.37427 1.82687C9.99078 1.50533 11.6663 1.67036 13.1891 2.30109C14.7118 2.93182 16.0133 3.99992 16.9289 5.37033C17.8446 6.74074 18.3334 8.35191 18.3334 10.0001C18.3334 12.2102 17.4554 14.3298 15.8926 15.8926C14.3298 17.4554 12.2102 18.3334 10 18.3334ZM10 3.33342C8.68148 3.33342 7.39255 3.72441 6.29622 4.45695C5.19989 5.1895 4.34541 6.23069 3.84083 7.44886C3.33624 8.66704 3.20422 10.0075 3.46146 11.3007C3.71869 12.5939 4.35363 13.7818 5.28598 14.7141C6.21833 15.6465 7.40622 16.2814 8.69942 16.5387C9.99263 16.7959 11.3331 16.6639 12.5512 16.1593C13.7694 15.6547 14.8106 14.8002 15.5432 13.7039C16.2757 12.6076 16.6667 11.3186 16.6667 10.0001C16.6667 8.23198 15.9643 6.53628 14.7141 5.28604C13.4638 4.0358 11.7681 3.33342 10 3.33342Z" fill="#E6E6E6"/>
</svg>
