<svg width="20" height="20" viewBox="0 0 20 20" fill="none" xmlns="http://www.w3.org/2000/svg">
<path d="M10.0001 1.66675C8.35191 1.66675 6.74074 2.15549 5.37033 3.07117C3.99992 3.98685 2.93182 5.28834 2.30109 6.81105C1.67036 8.33377 1.50533 10.0093 1.82687 11.6258C2.14842 13.2423 2.94209 14.7272 4.10753 15.8926C5.27297 17.0581 6.75782 17.8517 8.37433 18.1733C9.99084 18.4948 11.6664 18.3298 13.1891 17.6991C14.7118 17.0683 16.0133 16.0002 16.929 14.6298C17.8447 13.2594 18.3334 11.6483 18.3334 10.0001C18.3334 8.90573 18.1179 7.8221 17.6991 6.81105C17.2803 5.80001 16.6665 4.88135 15.8926 4.10752C15.1188 3.3337 14.2002 2.71987 13.1891 2.30109C12.1781 1.8823 11.0944 1.66675 10.0001 1.66675ZM10.0001 16.6667C8.68154 16.6667 7.39261 16.2758 6.29628 15.5432C5.19996 14.8107 4.34547 13.7695 3.84089 12.5513C3.3363 11.3331 3.20428 9.99269 3.46152 8.69948C3.71875 7.40627 4.35369 6.21839 5.28604 5.28604C6.21839 4.35369 7.40628 3.71875 8.69948 3.46151C9.99269 3.20428 11.3331 3.3363 12.5513 3.84088C13.7695 4.34547 14.8107 5.19995 15.5432 6.29628C16.2758 7.39261 16.6668 8.68154 16.6668 10.0001C16.6668 11.7682 15.9644 13.4639 14.7141 14.7141C13.4639 15.9644 11.7682 16.6667 10.0001 16.6667Z" fill="#E6E6E6"/>
<path d="M9.99992 5.83325C9.17583 5.83325 8.37025 6.07762 7.68504 6.53546C6.99984 6.9933 6.46579 7.64405 6.15042 8.4054C5.83506 9.16676 5.75254 10.0045 5.91332 10.8128C6.07409 11.621 6.47092 12.3635 7.05364 12.9462C7.63636 13.5289 8.37879 13.9258 9.18704 14.0865C9.9953 14.2473 10.8331 14.1648 11.5944 13.8494C12.3558 13.5341 13.0065 13 13.4644 12.3148C13.9222 11.6296 14.1666 10.824 14.1666 9.99992C14.1666 8.89485 13.7276 7.83504 12.9462 7.05364C12.1648 6.27224 11.105 5.83325 9.99992 5.83325Z" fill="#017AFF"/>
</svg>
