<svg width="18" height="18" viewBox="0 0 18 18" fill="none" xmlns="http://www.w3.org/2000/svg">
<g clip-path="url(#clip0_148_351)">
<path d="M17.1217 6.87906L14.2125 3.96981C14.071 3.83319 13.8816 3.7576 13.6849 3.75931C13.4883 3.76101 13.3002 3.83989 13.1611 3.97895C13.0221 4.118 12.9432 4.30611 12.9415 4.50276C12.9398 4.69941 13.0154 4.88886 13.152 5.03031L16.0613 7.93956C16.1477 8.02771 16.2232 8.12591 16.2863 8.23206C16.275 8.23206 16.266 8.22606 16.2548 8.22606L4.49175 8.25006C4.29284 8.25006 4.10207 8.32908 3.96142 8.46973C3.82077 8.61038 3.74175 8.80115 3.74175 9.00006C3.74175 9.19897 3.82077 9.38974 3.96142 9.53039C4.10207 9.67104 4.29284 9.75006 4.49175 9.75006L16.2502 9.72606C16.2712 9.72606 16.2885 9.71556 16.3088 9.71406C16.2422 9.84093 16.1579 9.95761 16.0582 10.0606L13.149 12.9698C13.0774 13.039 13.0202 13.1218 12.9809 13.2133C12.9416 13.3048 12.9209 13.4032 12.9201 13.5028C12.9192 13.6023 12.9382 13.7011 12.9759 13.7933C13.0136 13.8854 13.0693 13.9692 13.1397 14.0396C13.2101 14.11 13.2939 14.1657 13.386 14.2034C13.4782 14.2411 13.577 14.2601 13.6765 14.2592C13.7761 14.2584 13.8745 14.2377 13.9661 14.1984C14.0576 14.1591 14.1403 14.1019 14.2095 14.0303L17.1188 11.1211C17.6812 10.5585 17.9971 9.79555 17.9971 9.00006C17.9971 8.20457 17.6812 7.44164 17.1188 6.87906H17.1217Z" fill="#DD3437"/>
<path d="M5.25 16.5H3.75C3.15326 16.5 2.58097 16.2629 2.15901 15.841C1.73705 15.419 1.5 14.8467 1.5 14.25V3.75C1.5 3.15326 1.73705 2.58097 2.15901 2.15901C2.58097 1.73705 3.15326 1.5 3.75 1.5H5.25C5.44891 1.5 5.63968 1.42098 5.78033 1.28033C5.92098 1.13968 6 0.948912 6 0.75C6 0.551088 5.92098 0.360322 5.78033 0.21967C5.63968 0.0790176 5.44891 0 5.25 0L3.75 0C2.7558 0.00119089 1.80267 0.396661 1.09966 1.09966C0.396661 1.80267 0.00119089 2.7558 0 3.75L0 14.25C0.00119089 15.2442 0.396661 16.1973 1.09966 16.9003C1.80267 17.6033 2.7558 17.9988 3.75 18H5.25C5.44891 18 5.63968 17.921 5.78033 17.7803C5.92098 17.6397 6 17.4489 6 17.25C6 17.0511 5.92098 16.8603 5.78033 16.7197C5.63968 16.579 5.44891 16.5 5.25 16.5Z" fill="#DD3437"/>
</g>
<defs>
<clipPath id="clip0_148_351">
<rect width="18" height="18" fill="white"/>
</clipPath>
</defs>
</svg>
