<svg width="24" height="22" viewBox="0 0 24 22" fill="none" xmlns="http://www.w3.org/2000/svg">
<path d="M24 5V6C24 6.552 23.553 7 23 7C22.447 7 22 6.552 22 6V5C22 3.346 20.654 2 19 2H5C3.346 2 2 3.346 2 5V15C2 16.654 3.346 18 5 18H8C8.553 18 9 18.448 9 19C9 19.552 8.553 20 8 20H5C2.243 20 0 17.757 0 15V5C0 2.243 2.243 0 5 0H19C21.757 0 24 2.243 24 5ZM15 7H19C19.553 7 20 6.552 20 6C20 5.448 19.553 5 19 5H15C14.447 5 14 5.448 14 6C14 6.552 14.447 7 15 7ZM23.121 9.879C23.687 10.445 24 11.199 24 12C24 12.801 23.687 13.555 23.121 14.122L16.414 20.829C15.659 21.584 14.654 22.001 13.586 22.001H12C11.447 22.001 11 21.553 11 21.001V19.415C11 18.347 11.416 17.342 12.172 16.587L18.879 9.88C20.049 8.71 21.951 8.71 23.121 9.88V9.879ZM22 12C22 11.733 21.896 11.482 21.707 11.293C21.316 10.902 20.684 10.903 20.293 11.293L13.586 18C13.214 18.373 13 18.888 13 19.414V20H13.586C14.12 20 14.622 19.792 15 19.414L21.707 12.707C21.896 12.518 22 12.267 22 12V12ZM9 13H6.732C6.376 13 6.044 12.808 5.865 12.5C5.59 12.021 4.979 11.856 4.499 12.135C4.021 12.412 3.857 13.023 4.135 13.501C4.669 14.426 5.665 15 6.733 15H7.001C7.001 15.552 7.448 16 8.001 16C8.554 16 9.001 15.552 9.001 15C10.655 15 12.001 13.654 12.001 12C12.001 10.64 11.027 9.49 9.686 9.267L6.645 8.76C6.272 8.698 6.001 8.378 6.001 8C6.001 7.449 6.449 7 7.001 7H9.269C9.625 7 9.957 7.192 10.136 7.5C10.411 7.978 11.021 8.142 11.502 7.865C11.98 7.588 12.144 6.977 11.866 6.499C11.332 5.574 10.336 4.999 9.268 4.999H9C9 4.447 8.553 3.999 8 3.999C7.447 3.999 7 4.447 7 4.999C5.346 4.999 4 6.345 4 7.999C4 9.359 4.974 10.509 6.315 10.732L9.356 11.239C9.729 11.301 10 11.621 10 11.999C10 12.55 9.552 12.999 9 12.999V13ZM14 10C14 10.552 14.448 11 15 11C15.552 11 16 10.552 16 10C16 9.448 15.552 9 15 9C14.448 9 14 9.448 14 10Z" fill="white"/>
</svg>
