<svg width="24" height="24" viewBox="0 0 24 24" fill="none" xmlns="http://www.w3.org/2000/svg">
<g clip-path="url(#clip0_152_303)">
<path d="M2.11342 5.20044C1.33959 6.32363 0.751493 7.58478 0.394897 8.94028H5.85347L2.11342 5.20044Z" fill="#29337A"/>
<path d="M8.6393 0.480225C7.2567 0.882876 5.97624 1.52539 4.84869 2.36342L8.6393 6.15403V0.480225Z" fill="#29337A"/>
<path d="M5.13062 21.8365C6.18824 22.5766 7.36985 23.1495 8.63931 23.5192V18.3284L5.13062 21.8365Z" fill="#29337A"/>
<path d="M0.532623 15.5432C0.929397 16.8284 1.5374 18.0208 2.31443 19.0815L5.85267 15.5432H0.532623Z" fill="#29337A"/>
<path d="M2.3114 4.92188C2.24431 5.01358 2.17819 5.10661 2.11339 5.20059L5.85343 8.94044H0.394862C0.306397 9.27712 0.234196 9.62029 0.174713 9.96817H7.35809L2.3114 4.92188Z" fill="white"/>
<path d="M4.85226 21.6386C4.94357 21.7066 5.0374 21.7714 5.13058 21.8366L8.63928 18.3283V23.5191C8.97636 23.6177 9.31872 23.7027 9.66701 23.7711V16.824L4.85226 21.6386Z" fill="white"/>
<path d="M0.266022 14.5154C0.340502 14.8636 0.42841 15.2066 0.532429 15.5431H5.85253L2.31429 19.0813C2.69911 19.6071 3.12583 20.1005 3.58948 20.5568L9.63083 14.5154H0.266022Z" fill="white"/>
<path d="M8.63931 0.48029V6.1541L4.84865 2.36369C4.32607 2.7523 3.83759 3.18374 3.38498 3.65078L9.66684 9.93265V0.228271C9.31876 0.297077 8.9764 0.38235 8.63931 0.48029Z" fill="white"/>
<path d="M8.6393 15.5071L8.60327 15.5433H8.6393V15.5071Z" fill="#D32030"/>
<path d="M9.63101 14.5157H9.66699V14.4795L9.63101 14.5157Z" fill="#D32030"/>
<path d="M14.2491 9.96826H14.2144V10.0031L14.2491 9.96826Z" fill="#D32030"/>
<path d="M8.6747 8.94065L8.63928 8.90503V8.94065H8.6747Z" fill="#D32030"/>
<path d="M9.66696 9.93262V9.96808H9.70243L9.66696 9.93262Z" fill="#D32030"/>
<path d="M15.2419 20.8629V23.5529C16.5279 23.1929 17.7269 22.6254 18.7993 21.8861L15.8847 18.9714C15.6517 19.7898 15.5665 20.2128 15.2419 20.8629Z" fill="#252F6C"/>
<path d="M15.8999 5.49591L19.0818 2.31406C17.9387 1.47694 16.6419 0.838992 15.2419 0.446777V3.21006C15.6161 3.95943 15.6476 4.52882 15.8999 5.49591Z" fill="#252F6C"/>
<path d="M21.6363 19.1514C22.4376 18.0734 23.0621 16.8567 23.4678 15.5432H18.0282L21.6363 19.1514Z" fill="#252F6C"/>
<path d="M23.6051 8.94062C23.2409 7.5565 22.6352 6.27168 21.837 5.13086L18.0268 8.94062H23.6051Z" fill="#252F6C"/>
<path d="M16.6005 14.7187L17.4251 15.5434L21.3722 19.4905C21.4618 19.3783 21.5508 19.2665 21.6365 19.1515L18.0284 15.5434H23.468C23.5717 15.207 23.6597 14.8639 23.734 14.5156H16.6776C16.666 14.6613 16.6143 14.574 16.6005 14.7187Z" fill="#E7E7E7"/>
<path d="M15.7753 6.09758L19.3528 2.51972C19.2631 2.45021 19.1734 2.38105 19.0818 2.31396L15.9 5.49581C15.9329 5.62162 15.7446 5.96874 15.7753 6.09758Z" fill="#E7E7E7"/>
<path d="M15.2419 2.98891V0.446535C14.9053 0.352193 14.5625 0.27224 14.2142 0.207031V1.44716C14.5966 1.86172 14.9394 2.38242 15.2419 2.98891Z" fill="#E7E7E7"/>
<path d="M16.5195 9.96808H23.8255C23.7662 9.6202 23.6938 9.27724 23.6053 8.94035H18.027L21.8372 5.13059C21.4626 4.59549 21.0463 4.09227 20.5916 3.62598L16.3 7.91718C16.4155 8.69558 16.4673 9.14763 16.5195 9.96808Z" fill="#E7E7E7"/>
<path d="M15.7113 18.7976L18.7995 21.8862C19.3132 21.5324 19.7969 21.1387 20.2483 20.7113L16.1861 16.6489C16.0565 17.4002 15.9026 18.1259 15.7113 18.7976Z" fill="#E7E7E7"/>
<path d="M14.2144 22.4101V23.7923C14.5627 23.7275 14.9053 23.6471 15.2421 23.5528V20.8628C14.9394 21.4695 14.5966 21.9961 14.2144 22.4101Z" fill="#E7E7E7"/>
<path d="M16.3 7.91714L20.5912 3.62594C20.2048 3.22917 19.7906 2.8599 19.3525 2.51978L15.9807 5.89223C16.1305 6.51863 16.1986 7.23562 16.3 7.91714Z" fill="#D71F28"/>
<path d="M11.4011 0.0147948C11.601 0.00511738 11.8003 0 11.9998 0C11.7992 0 11.5995 0.00511738 11.4011 0.0147948Z" fill="#D32030"/>
<path d="M11.9998 24C11.8003 24 11.601 23.9945 11.4014 23.9849C11.5998 23.9949 11.7992 24 11.9998 24Z" fill="#D32030"/>
<path d="M11.9998 24C12.7569 24 13.4962 23.9267 14.2143 23.7924V22.4102C13.584 23.0934 12.8466 24 11.9998 24Z" fill="#D32030"/>
<path d="M23.8253 9.96802H16.6143C16.7098 11.473 16.6983 13.0207 16.5798 14.5154H23.734C23.9072 13.7039 24 12.863 24 12.0001C24 11.307 23.9382 10.6291 23.8253 9.96802Z" fill="#D71F28"/>
<path d="M16.6005 14.7188C16.5338 15.4278 16.3015 15.9803 16.1859 16.6491L20.248 20.7113C20.6499 20.3304 21.0256 19.923 21.372 19.4905L17.425 15.5432L16.6005 14.7188Z" fill="#D71F28"/>
<path d="M14.2144 1.53643V0.207279C13.4965 0.0733153 12.7572 0 11.9998 0C12.8466 0 13.584 0.853386 14.2144 1.53643Z" fill="#D32030"/>
<path d="M15.2419 21.3819C15.5665 20.7316 15.8448 19.983 16.0779 19.1648L15.2419 18.3289V21.3819Z" fill="#29337A"/>
<path d="M16.1819 5.21403C15.9291 4.24695 15.6162 3.36777 15.2419 2.61841V6.1536L16.1819 5.21403Z" fill="#29337A"/>
<path d="M16.8333 14.9514C16.847 14.8066 16.8593 14.6613 16.871 14.5154H16.3973L16.8333 14.9514Z" fill="white"/>
<path d="M15.2419 6.15356V2.61817C14.9391 2.01168 14.5966 1.49062 14.2142 1.07642V7.65838L16.2781 5.59445C16.2471 5.46561 16.2144 5.3394 16.1819 5.21359L15.2419 6.15356Z" fill="white"/>
<path d="M14.2491 9.96803H16.9055C16.8534 9.14763 16.7704 8.34045 16.655 7.56226L14.2491 9.96803Z" fill="white"/>
<path d="M14.2144 22.9234C14.5968 22.5088 14.9394 21.9881 15.2421 21.3816V18.3286L16.0781 19.1646C16.2698 18.4925 16.4307 17.7746 16.5607 17.0233L14.2145 14.6772L14.2144 22.9234Z" fill="white"/>
<path d="M14.2144 22.9234V14.6773L16.5605 17.0235C16.6759 16.3545 16.7667 15.6606 16.8331 14.9515L16.3971 14.5155H16.8708C16.9892 13.0207 17.0008 11.4731 16.9053 9.9681H14.2489L16.6547 7.56232C16.5533 6.88059 16.4279 6.22121 16.278 5.59461L14.2145 7.65854V1.07657C13.584 0.393329 12.8466 0 11.9998 0C11.8003 0 11.6009 0.00511738 11.4011 0.0147948C10.8108 0.0443337 10.232 0.11694 9.66698 0.228357V9.93268L3.38497 3.65082C2.99899 4.04911 2.63996 4.4735 2.31138 4.92201L6.32994 8.94057L7.35803 9.9683H0.1747C0.0621686 10.6292 0 11.3071 0 12.0002C0 12.8633 0.0932275 13.7039 0.266002 14.5155H9.63101L3.58961 20.5569C3.98522 20.9455 4.40642 21.3074 4.85229 21.6386L9.66683 16.824V23.7713C10.2318 23.8827 10.811 23.9553 11.4013 23.9849C11.6008 23.9945 11.8001 24 11.9996 24C12.8466 24 13.584 23.6067 14.2144 22.9234Z" fill="#E51D35"/>
</g>
<defs>
<clipPath id="clip0_152_303">
<rect width="24" height="24" fill="white"/>
</clipPath>
</defs>
</svg>
