<svg width="24" height="24" viewBox="0 0 24 24" fill="none" xmlns="http://www.w3.org/2000/svg">
<path d="M12.0003 23.9999C18.6274 23.9999 23.9998 18.6276 23.9998 12.0004C23.9998 5.37332 18.6274 0.000976562 12.0003 0.000976562C5.3732 0.000976562 0.000854492 5.37332 0.000854492 12.0004C0.000854492 18.6276 5.3732 23.9999 12.0003 23.9999Z" fill="white"/>
<path d="M23.3141 7.99897C23.3128 7.99517 23.3116 7.99198 23.3103 7.98853C21.7745 3.65823 17.8241 0.472234 13.0778 0.0493164C14.9144 1.05617 15.4508 4.24617 15.9207 7.99902C16.2417 10.5624 16.2437 13.3869 15.9268 15.9535C15.4608 19.7267 14.9222 22.9392 13.0779 23.9502C17.8329 23.5265 21.7889 20.3295 23.3187 15.9876C23.3227 15.976 23.3261 15.9647 23.3302 15.9535C23.7622 14.7153 24 13.3856 24 12.0001C23.9998 10.5965 23.7567 9.2505 23.3141 7.99897Z" fill="#E12A28"/>
<path d="M16.5383 7.999C16.0686 4.2461 14.9143 1.05615 13.0776 0.049299C12.7223 0.0178348 12.3631 0 11.9997 0C6.77955 0 2.34021 3.33404 0.689477 7.98856C0.688159 7.99196 0.686994 7.9952 0.685677 7.999C0.2431 9.25053 0 10.5965 0 12.0001C0 13.3857 0.23778 14.7152 0.669767 15.9534C0.67377 15.9646 0.677367 15.976 0.681319 15.9875C2.32557 20.654 6.77099 23.9997 11.9997 23.9997C12.3631 23.9997 12.7223 23.9819 13.0776 23.9501C14.9219 22.9391 16.0784 19.7265 16.5443 15.9534C16.8614 13.3867 16.8593 10.5624 16.5383 7.999Z" fill="#ED3432"/>
<path d="M11.8924 5.84961L13.3179 10.237H17.9313L14.1989 12.9481L15.6245 17.336L11.8924 14.6242L8.16021 17.336L9.58583 12.9481L5.85355 10.237H10.4669L11.8924 5.84961Z" fill="#FDCE0C"/>
</svg>
